<svg width="49" height="48" viewBox="0 0 49 48" fill="none" xmlns="http://www.w3.org/2000/svg">
<path fill-rule="evenodd" clip-rule="evenodd" d="M31.2588 12.198C32.5781 12.198 33.6514 11.1213 33.6514 9.79798C33.6514 8.47462 32.5781 7.39789 31.2588 7.39789C29.9396 7.39789 28.8663 8.47462 28.8663 9.79798C28.8663 10.3385 29.0454 10.8377 29.3472 11.2393L25.4161 16.7498C25.1815 16.6725 24.9312 16.6301 24.6711 16.6301C24.0424 16.6301 23.4699 16.875 23.0425 17.2742L20.4223 15.7827C20.4572 15.6199 20.476 15.4511 20.476 15.278C20.476 13.9547 19.4027 12.878 18.0834 12.878C16.7641 12.878 15.6908 13.9547 15.6908 15.278C15.6908 15.4511 15.7096 15.6199 15.7445 15.7827L13.1242 17.2742C12.6968 16.875 12.1243 16.6302 11.4957 16.6302C10.1764 16.6302 9.10309 17.7069 9.10309 19.0303C9.10309 20.3537 10.1764 21.4304 11.4957 21.4304C12.8149 21.4304 13.8882 20.3537 13.8882 19.0303C13.8882 18.8572 13.8695 18.6884 13.8346 18.5256L16.4548 17.0342C16.8822 17.4333 17.4547 17.6782 18.0834 17.6782C18.7121 17.6782 19.2845 17.4333 19.712 17.0343L22.3322 18.5257C22.2973 18.6885 22.2785 18.8573 22.2785 19.0304C22.2785 20.3538 23.3518 21.4305 24.6711 21.4305C25.9905 21.4305 27.0638 20.3538 27.0638 19.0304C27.0638 18.4898 26.8845 17.9905 26.5828 17.5889L30.5139 12.0784C30.7484 12.1556 30.9987 12.198 31.2588 12.198ZM31.2588 8.83789C31.7865 8.83789 32.2159 9.26854 32.2159 9.79798C32.2159 10.3273 31.7865 10.758 31.2588 10.758C30.7311 10.758 30.3018 10.3273 30.3018 9.79798C30.3017 9.26854 30.731 8.83789 31.2588 8.83789ZM10.5383 19.0301C10.5383 19.5596 10.9677 19.9902 11.4954 19.9902C12.0231 19.9902 12.4524 19.5596 12.4524 19.0301C12.4524 18.5007 12.0231 18.07 11.4954 18.07C10.9677 18.07 10.5383 18.5007 10.5383 19.0301ZM18.0832 16.238C17.5555 16.238 17.1262 15.8074 17.1262 15.278C17.1262 14.7486 17.5555 14.318 18.0832 14.318C18.6109 14.318 19.0402 14.7486 19.0402 15.278C19.0403 15.8074 18.6109 16.238 18.0832 16.238ZM23.714 19.0301C23.714 19.5596 24.1433 19.9902 24.671 19.9902C25.1987 19.9902 25.6281 19.5596 25.6281 19.0301C25.6281 18.5007 25.1988 18.07 24.671 18.07C24.1433 18.07 23.714 18.5007 23.714 19.0301Z" fill="#353B41"/>
<path fill-rule="evenodd" clip-rule="evenodd" d="M35.057 35.6127H40.0801C40.4765 35.6127 40.7979 35.9349 40.7979 36.3326C40.7979 36.7304 40.4765 37.0527 40.0801 37.0527H35.7748V38.6372C35.7748 39.54 35.0427 40.2743 34.1428 40.2743H26.9579L30.3401 46.8981C30.5209 47.2521 30.3813 47.6859 30.0285 47.8672C29.9238 47.9209 29.812 47.9465 29.7018 47.9465C29.4411 47.9465 29.1895 47.8035 29.0625 47.5546L25.3451 40.2743H17.4092L13.6918 47.5546C13.5648 47.8035 13.3132 47.9465 13.0524 47.9465C12.9422 47.9465 12.8304 47.9211 12.7257 47.8672C12.3729 47.6859 12.2334 47.2521 12.4141 46.8981L15.7963 40.2743H8.61146C7.71157 40.2743 6.97944 39.5399 6.97944 38.6372V37.0527H2.03034C0.910807 37.0527 0 36.139 0 35.016V5.31179C0 4.18878 0.910807 3.27515 2.03034 3.27515H5.41402C5.81042 3.27515 6.13179 3.59742 6.13179 3.99515C6.13179 4.39287 5.81042 4.71515 5.41402 4.71515H2.03034C1.70237 4.71515 1.43555 4.98279 1.43555 5.31179V35.016C1.43555 35.345 1.70237 35.6127 2.03034 35.6127H7.69721H35.057ZM34.1428 38.8343C34.2511 38.8343 34.3392 38.7459 34.3392 38.6372V37.0527H8.41498V38.6372C8.41498 38.7459 8.50313 38.8343 8.61146 38.8343H34.1428Z" fill="#353B41"/>
<path fill-rule="evenodd" clip-rule="evenodd" d="M18.1112 4.71516H8.28513C7.88872 4.71516 7.56735 4.39288 7.56735 3.99516C7.56735 3.59743 7.88872 3.27516 8.28513 3.27516H17.3934V1.85992C17.3934 0.863925 18.2013 0.0535889 19.1942 0.0535889H23.56C24.553 0.0535889 25.3609 0.863925 25.3609 1.85992V3.27516H40.7238C41.8433 3.27516 42.7541 4.18879 42.7541 5.3118V12.1577C42.7541 12.5554 42.4328 12.8777 42.0364 12.8777C41.64 12.8777 41.3186 12.5554 41.3186 12.1577V5.3118C41.3186 4.9828 41.0518 4.71516 40.7238 4.71516H24.643H18.1112ZM19.1942 1.49359C18.9928 1.49359 18.8289 1.65794 18.8289 1.85992H18.829V3.27516H23.9253V1.85992C23.9253 1.65794 23.7614 1.49359 23.56 1.49359H19.1942Z" fill="#353B41"/>
<path fill-rule="evenodd" clip-rule="evenodd" d="M9.32169 25.8313C9.32169 25.4336 9.64306 25.1113 10.0395 25.1113H12.9514C13.3478 25.1113 13.6692 25.4336 13.6692 25.8313V32.1934C13.6692 32.5912 13.3478 32.9134 12.9514 32.9134H10.0395C9.64306 32.9134 9.32169 32.5912 9.32169 32.1934V25.8313ZM10.7572 31.4735H12.2336V26.5514H10.7572V31.4735Z" fill="#353B41"/>
<path fill-rule="evenodd" clip-rule="evenodd" d="M15.9094 22.1518C15.9094 21.7541 16.2308 21.4318 16.6272 21.4318H19.5391C19.9355 21.4318 20.2569 21.7541 20.2569 22.1518V32.1935C20.2569 32.5912 19.9355 32.9135 19.5391 32.9135H16.6272C16.2308 32.9135 15.9094 32.5912 15.9094 32.1935V22.1518ZM17.345 31.4735H18.8214V22.8718H17.345V31.4735Z" fill="#353B41"/>
<path fill-rule="evenodd" clip-rule="evenodd" d="M22.4972 25.8313C22.4972 25.4336 22.8186 25.1113 23.215 25.1113H26.127C26.5234 25.1113 26.8447 25.4336 26.8447 25.8313V32.1934C26.8447 32.5912 26.5234 32.9134 26.127 32.9134H23.215C22.8186 32.9134 22.4972 32.5912 22.4972 32.1934V25.8313ZM23.9328 31.4735H25.4092V26.5514H23.9328V31.4735Z" fill="#353B41"/>
<path fill-rule="evenodd" clip-rule="evenodd" d="M29.8028 29.3599C29.4064 29.3599 29.0851 29.6821 29.0851 30.0799V32.1935C29.0851 32.5912 29.4064 32.9135 29.8028 32.9135H32.7148C33.1112 32.9135 33.4326 32.5912 33.4326 32.1935C33.4326 31.7958 33.1112 31.4735 32.7148 31.4735H30.5206V30.0799C30.5206 29.6821 30.1992 29.3599 29.8028 29.3599Z" fill="#353B41"/>
<path fill-rule="evenodd" clip-rule="evenodd" d="M48.6339 36.2898L44.5161 29.1353C45.5594 28.0199 46.3191 26.657 46.7248 25.1379C47.3734 22.7099 47.0406 20.1739 45.7876 17.997C43.2011 13.503 37.4522 11.958 32.9723 14.5524C28.4923 17.1468 26.952 22.9137 29.5385 27.4075C30.7914 29.5844 32.8145 31.1415 35.2349 31.7922C36.0432 32.0095 36.8633 32.1169 37.6782 32.1169C38.3904 32.1169 39.0985 32.0347 39.7911 31.8721L43.908 39.0268C44.4127 39.9039 45.3316 40.3948 46.2754 40.3947C46.738 40.3947 47.2065 40.2767 47.6352 40.0286C48.477 39.5412 49 38.6324 49 37.6569C49 37.1789 48.8735 36.7063 48.6339 36.2898ZM35.6064 30.4013C33.5564 29.8502 31.8428 28.5313 30.7816 26.6875C28.5909 22.8813 29.8956 17.997 33.69 15.7995C34.9382 15.0766 36.3023 14.7333 37.6496 14.7333C40.3977 14.7333 43.0743 16.163 44.5443 18.717C45.6055 20.5608 45.8874 22.7087 45.3381 24.7652C44.7888 26.8217 43.4739 28.5404 41.6358 29.605C39.7978 30.6695 37.6566 30.9521 35.6064 30.4013ZM45.1514 38.307C45.5077 38.9262 46.3001 39.1391 46.9177 38.7814C47.3166 38.5504 47.5644 38.1195 47.5644 37.657C47.5644 37.4314 47.5043 37.2075 47.3906 37.0096L43.4285 30.1258C43.0897 30.3896 42.7317 30.6332 42.3538 30.8521C41.9761 31.0708 41.5874 31.2609 41.1904 31.4234L45.1514 38.307Z" fill="#353B41"/>
<path fill-rule="evenodd" clip-rule="evenodd" d="M43.7745 25.0217C44.2504 23.4834 44.1371 21.8365 43.4554 20.3844C43.2967 20.0464 42.8951 19.9016 42.5584 20.0607C42.2215 20.22 42.0772 20.623 42.2359 20.9609C42.7736 22.1064 42.8629 23.4059 42.4871 24.6205C42.1093 25.8417 41.293 26.8665 40.1888 27.5063C39.0202 28.1835 37.6587 28.3631 36.3555 28.0128C35.0521 27.6623 33.9627 26.8234 33.2881 25.6507C31.8953 23.2299 32.7249 20.1233 35.1372 18.7256C36.9009 17.7039 39.0898 17.8404 40.7139 19.0735C41.0108 19.299 41.4335 19.2403 41.6581 18.9423C41.8827 18.6444 41.8242 18.2201 41.5273 17.9947C39.47 16.4325 36.697 16.2596 34.463 17.554C32.9826 18.4117 31.9236 19.7967 31.4812 21.4537C31.0387 23.1107 31.2659 24.8414 32.1206 26.3271C32.9753 27.8128 34.3553 28.8754 36.0065 29.3195C36.5579 29.4678 37.1174 29.5411 37.6733 29.5411C38.7822 29.5411 39.8767 29.2493 40.8627 28.6779C42.2618 27.8675 43.2959 26.5691 43.7745 25.0217Z" fill="#353B41"/>
</svg>
