<svg width="351" height="230" viewBox="0 0 351 230" fill="none" xmlns="http://www.w3.org/2000/svg">
<path opacity="0.1" fill-rule="evenodd" clip-rule="evenodd" d="M181.39 41.5709C159.241 45.3193 137.123 43.7124 115.846 41.3751C94.5683 39.0378 73.3438 35.9857 51.1852 36.9057C36.931 37.4962 21.0569 40.3246 11.1041 48.5455C1.52378 56.4526 0.0310242 67.1227 0.0124035 76.7547C-0.0124241 83.9997 0.614473 91.4965 5.74137 97.2682C9.30413 101.271 14.7879 104.14 18.9186 107.836C33.2907 120.672 28.921 140.884 19.4896 158.069C15.0641 166.131 9.65171 174.06 6.63827 182.312C3.62482 190.564 3.22447 199.407 8.61827 206.136C13.9624 212.809 24.3 216.57 35.0783 218.519C56.97 222.478 81.36 220.02 104.959 216.688C157.187 209.288 208.874 197.75 260.451 186.241C279.534 181.98 298.701 177.7 317.086 171.558C327.296 168.139 337.692 163.884 344.287 157.261C352.667 148.869 352.878 137.391 344.802 130.531C331.253 119.031 300.584 121.583 290.104 108.436C284.338 101.197 286.849 91.3659 291.439 82.6819C301.28 64.0581 320.301 45.6581 317.837 27.0903C316.136 14.347 303.16 3.80121 285.769 1.05365C267.539 -1.82446 244.127 3.63338 233.631 16.4574C222.84 29.67 200.948 38.2515 181.39 41.5709Z" fill="#14957D"/>
<rect x="111.724" y="111.966" width="87.961" height="20.3985" fill="#565661"/>
<rect opacity="0.1" x="111.724" y="111.966" width="87.961" height="20.3985" fill="black"/>
<path fill-rule="evenodd" clip-rule="evenodd" d="M122.248 133.036L122.865 187.494L114.405 208.884L113.751 133.036H122.248Z" fill="#BCBEC9"/>
<path fill-rule="evenodd" clip-rule="evenodd" d="M112.652 115.883L198.292 116.399V131.591H112.652V115.883Z" fill="#565661"/>
<path fill-rule="evenodd" clip-rule="evenodd" d="M190.964 133.036L198.292 134.071V208.057L190.964 185.427V133.036Z" fill="#BCBEC9"/>
<rect x="201.076" y="112.784" width="41.2728" height="87.8351" fill="#EFEFF0"/>
<rect x="204.378" y="115.224" width="34.6686" height="67.5174" fill="#565661"/>
<rect opacity="0.1" x="204.378" y="115.224" width="34.6686" height="67.5174" fill="black"/>
<rect x="204.378" y="116.607" width="34.6686" height="14.9842" fill="#565661"/>
<rect x="204.378" y="133.036" width="34.6686" height="31.827" fill="#565661"/>
<rect x="204.378" y="166.828" width="34.6686" height="31.827" fill="#565661"/>
<rect opacity="0.1" x="204.378" y="166.828" width="34.6686" height="31.827" fill="black"/>
<path fill-rule="evenodd" clip-rule="evenodd" d="M205.824 206.338C207.058 206.338 208.058 205.058 208.058 203.479C208.058 201.899 207.058 200.619 205.824 200.619C204.59 200.619 203.589 201.899 203.589 203.479C203.589 205.058 204.59 206.338 205.824 206.338Z" fill="#565661"/>
<path fill-rule="evenodd" clip-rule="evenodd" d="M236.812 206.475C238.046 206.475 239.046 205.194 239.046 203.615C239.046 202.036 238.046 200.756 236.812 200.756C235.578 200.756 234.577 202.036 234.577 203.615C234.577 205.194 235.578 206.475 236.812 206.475Z" fill="#565661"/>
<path fill-rule="evenodd" clip-rule="evenodd" d="M111.414 208.884H114.406L113.583 113.545H109.04L111.414 208.884Z" fill="#EFEFF0"/>
<path fill-rule="evenodd" clip-rule="evenodd" d="M198.292 112.784V208.057H201.075V113.545L198.292 112.784Z" fill="#EFEFF0"/>
<path fill-rule="evenodd" clip-rule="evenodd" d="M113.729 130.659V134.071H198.292V131.591L113.729 130.659Z" fill="#EFEFF0"/>
<path fill-rule="evenodd" clip-rule="evenodd" d="M119.461 106.378H226.667L242.246 111.544V114.54L108.524 113.508V110.459L119.461 106.378Z" fill="white"/>
<path fill-rule="evenodd" clip-rule="evenodd" d="M108.524 110.459L242.246 111.544V114.54L108.524 113.508V110.459Z" fill="#BCBEC9"/>
<path fill-rule="evenodd" clip-rule="evenodd" d="M120.637 145.991L120.017 145.898C120.017 145.87 120.017 145.845 120.017 145.82C119.998 145.674 119.976 145.531 119.954 145.385C120.209 145.587 120.451 145.789 120.674 145.991H120.637Z" fill="url(#paint0_linear)"/>
<path fill-rule="evenodd" clip-rule="evenodd" d="M107.15 193.983C107.553 193.89 107.963 193.812 108.372 193.756C111.186 193.355 114.055 193.778 116.634 194.975C116.373 196.896 116.116 198.882 116.668 200.737C117.053 202.043 117.826 203.224 117.99 204.585C118.835 204.731 119.526 205.342 119.775 206.164C119.894 206.521 119.953 206.894 119.951 207.27C119.948 207.736 119.89 208.199 119.778 208.65C119.699 209.4 119.039 209.952 118.288 209.894C115.886 210.167 113.53 209.219 111.296 208.29L106.951 206.481C106.442 206.27 105.93 206.055 105.443 205.794C104.519 205.294 103.698 204.622 103.025 203.814C102.883 203.67 102.783 203.489 102.737 203.292C102.656 202.745 103.295 202.419 103.702 202.049C103.821 201.936 103.925 201.809 104.012 201.67C104.493 200.942 104.54 199.938 104.828 199.081C105.511 197.045 107.621 195.733 108.366 193.747C108.407 193.638 108.444 193.529 108.475 193.418" fill="#A26565"/>
<path opacity="0.1" fill-rule="evenodd" clip-rule="evenodd" d="M119.951 207.27C119.948 207.736 119.89 208.199 119.778 208.65C119.699 209.4 119.039 209.952 118.288 209.894C115.886 210.167 113.53 209.219 111.296 208.29L106.951 206.481C106.442 206.27 105.93 206.055 105.443 205.794C104.519 205.294 103.698 204.622 103.025 203.814C102.883 203.67 102.783 203.489 102.737 203.292C102.656 202.745 103.295 202.419 103.702 202.049C103.821 201.936 103.925 201.809 104.012 201.67C105.21 201.928 106.697 202.683 107.612 202.975C108.529 203.225 109.41 203.594 110.231 204.072C111.373 204.806 112.196 205.937 113.164 206.869C114.132 207.802 115.383 208.65 116.733 208.535C117.447 208.428 118.135 208.19 118.763 207.833L119.951 207.27Z" fill="black"/>
<path fill-rule="evenodd" clip-rule="evenodd" d="M114.865 163.101C115.03 163.679 114.82 164.298 114.337 164.655C113.931 164.907 113.406 164.873 113.003 165.146C112.503 165.497 112.432 166.194 112.345 166.797C112.034 168.87 111.007 170.75 110.129 172.655C109.251 174.561 108.509 176.64 108.832 178.71C109.052 180.115 109.741 181.613 109.096 182.878C108.937 183.189 108.701 183.465 108.521 183.767C107.637 185.246 108.14 187.121 108.106 188.842C108.118 189.034 108.076 189.225 107.984 189.393C107.849 189.551 107.682 189.68 107.494 189.772C106.856 190.242 106.466 190.977 106.436 191.77C106.41 192.553 106.504 193.335 106.715 194.089C106.749 194.393 106.884 194.678 107.097 194.897C107.344 195.061 107.636 195.143 107.932 195.133C109.881 195.291 111.794 195.757 113.599 196.513C114.775 197.004 115.917 197.62 117.168 197.856C117.412 197.932 117.677 197.904 117.9 197.778C118.057 197.636 118.166 197.448 118.21 197.241C118.691 195.655 119.179 194.021 119.014 192.373C118.943 191.665 118.753 190.971 118.704 190.263C118.487 187.466 120.377 184.942 120.976 182.182C121.246 180.939 121.246 179.652 121.438 178.396C121.959 174.955 123.852 171.869 124.582 168.466C124.683 167.831 124.841 167.207 125.053 166.601C125.597 165.283 126.853 164.214 126.881 162.787C126.899 162.473 126.816 162.162 126.646 161.898C126.353 161.577 125.964 161.359 125.538 161.277C123.852 160.812 122.135 160.465 120.401 160.239C119.607 160.082 118.796 160.026 117.987 160.071C116.937 160.194 115.927 160.551 115.032 161.115C113.834 161.855 114.604 162.032 114.865 163.101Z" fill="#454B69"/>
<path opacity="0.05" fill-rule="evenodd" clip-rule="evenodd" d="M114.865 163.101C115.03 163.679 114.82 164.298 114.337 164.655C113.931 164.907 113.406 164.873 113.003 165.146C112.503 165.497 112.432 166.194 112.345 166.797C112.034 168.87 111.007 170.75 110.129 172.655C109.251 174.561 108.509 176.64 108.832 178.71C109.052 180.115 109.741 181.613 109.096 182.878C108.937 183.189 108.701 183.465 108.521 183.767C107.637 185.246 108.14 187.121 108.106 188.842C108.118 189.034 108.076 189.225 107.984 189.393C107.849 189.551 107.682 189.68 107.494 189.772C106.856 190.242 106.466 190.977 106.436 191.77C106.41 192.553 106.504 193.335 106.715 194.089C106.749 194.393 106.884 194.678 107.097 194.897C107.344 195.061 107.636 195.143 107.932 195.133C109.881 195.291 111.794 195.757 113.599 196.513C114.775 197.004 115.917 197.62 117.168 197.856C117.412 197.932 117.677 197.904 117.9 197.778C118.057 197.636 118.166 197.448 118.21 197.241C118.691 195.655 119.179 194.021 119.014 192.373C118.943 191.665 118.753 190.971 118.704 190.263C118.487 187.466 120.377 184.942 120.976 182.182C121.246 180.939 121.246 179.652 121.438 178.396C121.959 174.955 123.852 171.869 124.582 168.466C124.683 167.831 124.841 167.207 125.053 166.601C125.597 165.283 126.853 164.214 126.881 162.787C126.899 162.473 126.816 162.162 126.646 161.898C126.353 161.577 125.964 161.359 125.538 161.277C123.852 160.812 122.135 160.465 120.401 160.239C119.607 160.082 118.796 160.026 117.987 160.071C116.937 160.194 115.927 160.551 115.032 161.115C113.834 161.855 114.604 162.032 114.865 163.101Z" fill="black"/>
<path fill-rule="evenodd" clip-rule="evenodd" d="M108.791 209.943H106.144L104.412 174.312L104.291 172.286L106.541 171.493L106.693 173.647L108.791 209.943Z" fill="#565661"/>
<path opacity="0.1" fill-rule="evenodd" clip-rule="evenodd" d="M106.693 173.647L104.412 174.312L104.291 172.286L106.541 171.493L106.693 173.647Z" fill="black"/>
<path fill-rule="evenodd" clip-rule="evenodd" d="M142.008 217.481L137.641 218.009L117.524 172.286L112.1 171.888L102.572 174.673L100.719 229.111H96.3528L98.0721 172.683L87.6166 172.951L68.9586 219.467H64.9893L84.6124 165.103L85.3697 163.008L114.613 162.004L121.903 166.097L121.997 166.334L142.008 217.481Z" fill="#565661"/>
<path opacity="0.1" fill-rule="evenodd" clip-rule="evenodd" d="M121.997 166.334C115.712 168.229 109.189 170.299 109.189 170.299C109.189 170.299 103.239 172.379 100.719 170.299C100.402 170.051 100.046 169.855 99.6673 169.718C99.9943 169.952 100.347 170.147 100.719 170.299L84.6124 165.1L85.3666 163.008L114.613 162.004L121.903 166.097L121.997 166.334Z" fill="black"/>
<path fill-rule="evenodd" clip-rule="evenodd" d="M92.25 157.311L104.158 154.659C104.158 154.659 132.61 159.962 134.727 162.082C134.727 162.082 111.966 166.719 109.452 168.298C106.939 169.877 91.9831 171.624 92.25 157.311Z" fill="white"/>
<path fill-rule="evenodd" clip-rule="evenodd" d="M87.1293 127.507C86.1982 130.463 83.6565 133.126 80.5624 133.254C80.3372 133.28 80.1093 133.239 79.9076 133.136C79.5196 132.893 79.5103 132.325 79.6686 131.893C79.8269 131.461 80.1031 131.072 80.1465 130.618C80.1558 130.526 80.1495 130.432 80.1279 130.342C80.0472 129.972 79.7462 129.642 79.3924 129.72C79.8915 129.32 80.0057 128.606 79.6562 128.07C79.5157 127.911 79.3891 127.74 79.2776 127.56C79.02 127.031 79.4203 126.438 79.5879 125.872C79.9324 124.629 79.0572 123.386 78.9858 122.09C78.9238 120.93 79.5103 119.839 79.6562 118.689C79.8889 116.824 78.9641 115.037 78.8555 113.176C78.781 111.876 79.1007 110.59 79.4576 109.337C79.7679 108.218 80.1186 107.087 80.1403 105.918C80.1403 105.07 79.9944 104.23 79.9541 103.385C79.8897 102.612 80.0299 101.836 80.3607 101.135C80.5755 100.722 80.9414 100.409 81.3817 100.261C82.3996 99.9195 83.0669 100.451 83.2158 101.418C83.4641 103.062 83.3213 104.74 83.6472 106.391C83.9485 107.934 84.405 109.443 85.0096 110.894C85.5589 112.206 86.2262 113.474 86.6482 114.832C86.966 115.952 87.1933 117.095 87.3279 118.251C87.7438 121.356 88.0696 124.551 87.1293 127.507Z" fill="#14957D"/>
<path fill-rule="evenodd" clip-rule="evenodd" d="M157.813 202.736C157.019 203.857 155.785 204.585 154.421 204.737C153.074 204.905 151.675 204.566 150.368 204.936C149.957 205.004 149.608 205.274 149.437 205.654C149.405 205.907 149.385 206.161 149.378 206.416C149.226 207.246 148.137 207.432 147.29 207.426L143.795 207.404C143.069 207.404 142.265 207.364 141.744 206.86C141.231 206.291 141.218 205.43 141.713 204.846C141.821 204.717 141.954 204.612 142.104 204.535C141.659 204.388 141.335 204.002 141.266 203.538C141.202 203.081 141.224 202.616 141.331 202.167C141.331 200.868 141.641 198.692 142.554 197.676C143.674 196.411 145.617 194.776 147.308 194.437C148.466 194.215 149.661 194.555 150.53 195.354C151.33 196.1 151.914 197.269 153.012 197.399C153.611 197.474 154.189 197.191 154.781 197.088C156.162 196.91 157.505 197.621 158.136 198.863C158.287 199.17 158.391 199.498 158.447 199.836C158.61 200.848 158.384 201.884 157.813 202.736Z" fill="#A26565"/>
<path opacity="0.1" fill-rule="evenodd" clip-rule="evenodd" d="M157.813 202.736C157.019 203.857 155.785 204.585 154.421 204.737C153.075 204.905 151.675 204.566 150.368 204.936C149.957 205.004 149.608 205.274 149.437 205.654C149.405 205.907 149.385 206.161 149.378 206.416C149.226 207.246 148.137 207.432 147.29 207.426L143.795 207.404C143.069 207.404 142.265 207.364 141.744 206.86C141.231 206.291 141.218 205.43 141.713 204.846C143.73 204.762 145.713 204.846 147.724 204.43C148.54 204.265 149.344 204.047 150.17 203.932C151.957 203.677 153.86 203.895 155.501 203.137C156.87 202.515 157.851 201.25 158.431 199.839C158.599 200.848 158.378 201.883 157.813 202.736Z" fill="black"/>
<path fill-rule="evenodd" clip-rule="evenodd" d="M148.593 197.822C147.352 198.785 145.896 199.537 144.332 199.618C142.768 199.699 141.108 198.997 140.341 197.635C139.221 195.637 140.214 192.858 138.842 191.024C138.414 190.449 137.796 190.042 137.343 189.486C136.89 188.929 136.629 188.093 137.033 187.503C136.545 187.689 136.03 187.217 135.888 186.713C135.745 186.21 135.835 185.669 135.748 185.159C135.521 183.807 134.196 182.94 133.56 181.74C132.924 180.541 133.011 178.984 132.939 177.563C132.781 174.102 131.494 170.789 129.277 168.13C128.855 167.626 128.315 167.114 127.657 167.139C127.772 166.001 127.015 164.913 126.034 164.341C125.053 163.769 123.887 163.577 122.751 163.465C111.29 162.333 99.3476 166.601 88.4048 163.011C85.3603 162.013 82.4245 160.344 80.5624 157.727C79.0971 155.715 78.5051 153.196 78.9207 150.74V150.697C79.352 148.49 80.5158 147.946 82.4431 146.939C84.6679 145.761 86.9934 144.784 89.3917 144.02C94.0469 142.563 99.0589 142.037 103.863 143.107C106.107 143.61 108.27 144.443 110.517 144.931C111.401 145.124 112.292 145.261 113.189 145.376C114.582 145.55 115.982 145.665 117.385 145.826C121.87 146.343 126.288 147.339 130.562 148.794C132.154 149.335 133.746 149.954 135.115 150.933C137.302 152.523 138.759 154.926 139.162 157.603C139.292 158.517 139.295 159.468 139.494 160.354C139.682 161.098 139.931 161.826 140.239 162.529C142.89 169.095 145.057 175.848 146.722 182.732C146.816 183.243 146.991 183.736 147.24 184.193C147.637 184.836 148.32 185.268 148.72 185.911C149.651 187.428 148.754 189.545 149.58 191.124C149.865 191.671 150.34 192.103 150.626 192.65C151.557 194.443 150.182 196.588 148.593 197.822Z" fill="#454B69"/>
<path opacity="0.1" fill-rule="evenodd" clip-rule="evenodd" d="M132.734 162.11C133.176 161.76 133.556 161.34 133.861 160.866C134.167 160.39 134.288 159.819 134.202 159.259C134.448 160.694 134 162.161 132.995 163.213C132.216 164.012 130.754 164.795 129.615 164.521C129.777 163.608 132.011 162.725 132.734 162.11Z" fill="black"/>
<path opacity="0.1" fill-rule="evenodd" clip-rule="evenodd" d="M113.344 146.619C113.154 147.296 112.636 147.831 111.966 148.042C111.304 148.245 110.612 148.326 109.921 148.282H109.3C101.157 148.101 92.9265 146.292 84.9724 148.017C84.0138 148.215 83.0733 148.493 82.1607 148.847C80.998 149.306 79.9093 149.935 78.93 150.712V150.669C79.3614 148.462 80.5252 147.918 82.4524 146.911C84.6752 145.743 86.9975 144.776 89.3917 144.02C94.0469 142.563 99.059 142.037 103.863 143.107C106.107 143.61 108.27 144.443 110.517 144.931C111.401 145.124 112.292 145.261 113.189 145.376C113.363 145.765 113.417 146.198 113.344 146.619Z" fill="black"/>
<path fill-rule="evenodd" clip-rule="evenodd" d="M113.344 146.174C113.155 146.853 112.637 147.389 111.966 147.601C111.305 147.804 110.611 147.884 109.921 147.837H109.3C101.157 147.657 92.9265 145.848 84.9724 147.573C84.0142 147.771 83.0738 148.048 82.1607 148.4C80.9431 148.886 79.8074 149.557 78.7934 150.389C78.5555 149.734 78.3186 149.078 78.0827 148.421C77.7972 147.638 78.7034 147.464 78.8772 146.762C78.992 146.286 78.7965 145.745 78.6972 145.239C78.6717 145.115 78.6552 144.989 78.6476 144.863C78.5917 143.741 78.992 143.094 79.9107 142.488C82.6355 140.685 85.9593 139.448 89.0689 138.519C90.7221 137.996 92.4299 137.664 94.1586 137.531C96.6041 137.388 99.0465 137.841 101.427 138.416C104.353 139.141 107.249 140.098 109.843 141.63C111.116 142.373 112.357 143.306 113.043 144.63C113.317 145.095 113.423 145.64 113.344 146.174Z" fill="#A26565"/>
<path opacity="0.1" fill-rule="evenodd" clip-rule="evenodd" d="M87.1293 127.507C86.1983 130.463 83.6566 133.126 80.5624 133.254C80.3373 133.28 80.1094 133.239 79.9076 133.136C79.5197 132.893 79.5104 132.325 79.6686 131.893C79.8269 131.461 80.1031 131.072 80.1466 130.618C80.1558 130.526 80.1495 130.432 80.128 130.342C81.7697 128.023 83.3617 125.679 83.9917 122.935C84.1193 122.462 84.1582 121.97 84.1066 121.484C84.0228 120.924 83.7404 120.417 83.5852 119.877C83.3121 118.919 83.4393 117.906 83.5169 116.915C83.8401 112.549 83.1121 108.169 81.3942 104.143C80.9752 103.174 80.4973 102.191 80.3514 101.156C80.5663 100.744 80.9322 100.431 81.3724 100.283C82.3904 99.9412 83.0576 100.473 83.2066 101.439C83.4549 103.084 83.3121 104.762 83.638 106.412C83.9392 107.956 84.3957 109.465 85.0004 110.916C85.5497 112.228 86.2169 113.496 86.639 114.854C86.9567 115.973 87.184 117.117 87.3186 118.273C87.7438 121.356 88.0697 124.551 87.1293 127.507Z" fill="black"/>
<path opacity="0.1" fill-rule="evenodd" clip-rule="evenodd" d="M113.344 146.174C113.155 146.853 112.637 147.389 111.966 147.601C111.305 147.804 110.611 147.884 109.921 147.837H109.3C106.649 146.074 103.463 145.303 100.3 145.661C99.2886 145.783 98.2769 146.019 97.2652 145.926C95.22 145.739 93.5628 144.266 91.741 143.324C87.5004 141.227 82.4131 141.918 78.8835 145.071L78.7066 145.226C78.6811 145.102 78.6645 144.977 78.6569 144.85C78.601 143.728 79.0014 143.082 79.92 142.476C82.6448 140.673 85.9686 139.436 89.0783 138.507C90.7315 137.983 92.4392 137.652 94.1679 137.518C96.6135 137.375 99.0559 137.829 101.436 138.404C104.363 139.128 107.258 140.086 109.853 141.618C111.116 142.373 112.357 143.306 113.043 144.63C113.317 145.095 113.423 145.64 113.344 146.174Z" fill="black"/>
<path fill-rule="evenodd" clip-rule="evenodd" d="M120.305 112.128L120.262 112.24C119.567 114.046 118.288 115.572 117.469 117.331C116.435 119.56 116.181 122.059 115.951 124.508C115.752 126.606 115.557 128.716 115.715 130.82C116.112 136.005 118.642 140.922 119.318 146.006C119.485 147.181 119.528 148.37 119.445 149.553C119.39 150.302 119.253 151.107 118.757 151.66C118.26 152.213 117.295 152.431 116.761 151.899C117 151.443 117.242 150.989 117.484 150.532C116.066 149.429 113.931 150.221 112.273 149.531C111.544 149.22 110.961 148.661 110.349 148.16C107.53 145.865 103.907 144.805 100.297 145.22C99.2855 145.344 98.2738 145.581 97.262 145.487C95.2169 145.298 93.5596 143.828 91.7379 142.886C87.4975 140.79 82.4114 141.48 78.8803 144.63C78.4458 145.034 77.8624 145.506 77.3286 145.251C77.1223 145.125 76.9556 144.943 76.8476 144.726C74.8148 141.248 76.3107 136.763 78.4831 133.375C80.6555 129.987 83.5324 126.864 84.4262 122.938C84.5552 122.466 84.5942 121.973 84.541 121.487C84.4572 120.927 84.1748 120.421 84.0196 119.88C83.7465 118.922 83.8738 117.909 83.9514 116.918C84.277 112.551 83.5511 108.17 81.8348 104.143C81.3383 102.984 80.7486 101.809 80.7486 100.55C80.7486 98.5674 82.1669 96.9232 83.34 95.3288C84.69 93.495 85.8227 91.4654 87.5327 89.958C89.1527 88.5251 91.4989 87.6486 93.5038 88.3759C96.9104 87.5477 100.417 87.2055 103.919 87.3596C105.129 87.4155 106.38 87.543 107.441 88.1304C108.577 88.752 109.393 89.8585 110.511 90.5205C111.327 91.0085 112.267 91.2385 113.155 91.5804C115.606 92.5391 117.629 94.3512 118.853 96.6839C120.094 99.0927 120.404 101.862 120.678 104.56C120.938 107.099 121.187 109.738 120.305 112.128Z" fill="#14957D"/>
<path opacity="0.1" fill-rule="evenodd" clip-rule="evenodd" d="M115.715 130.82C116.112 136.005 118.642 140.922 119.318 146.006C117.965 144.86 116.081 143.706 115.83 142.373C115.551 140.931 114.657 139.041 114.508 137.584C114.359 136.126 115.38 134.345 114.309 133.344C113.788 132.856 115.175 132.993 114.666 132.492C113.521 131.377 113.239 129.658 113.167 128.063C113.046 125.241 113.403 122.388 112.885 119.612C112.574 117.9 111.926 116.268 111.408 114.605C110.805 112.669 110.371 110.686 109.937 108.7C109.509 106.934 109.198 105.142 109.005 103.335C108.872 101.781 108.934 100.134 109.626 98.7166C110.318 97.2993 111.718 96.1493 113.288 96.1711C118.539 96.2395 117.633 103.369 118.788 106.664C119.25 107.976 119.874 109.244 120.125 110.611C120.217 111.147 120.267 111.69 120.274 112.234C119.579 114.04 118.3 115.566 117.481 117.325C116.448 119.553 116.193 122.052 115.963 124.501C115.752 126.606 115.557 128.716 115.715 130.82Z" fill="black"/>
<path fill-rule="evenodd" clip-rule="evenodd" d="M119.129 106.583C119.591 107.895 120.215 109.163 120.467 110.531C120.886 112.821 120.237 115.255 120.941 117.474C121.125 117.948 121.278 118.433 121.401 118.926C121.522 119.631 121.382 120.352 121.382 121.07C121.382 122.226 121.745 123.345 122.068 124.455C123.159 128.226 123.882 132.094 124.225 136.005C124.276 137.056 124.442 138.098 124.718 139.113C124.849 139.457 124.96 139.807 125.053 140.163C125.137 140.638 125.157 141.122 125.112 141.602C125.029 143.125 124.858 144.654 125.029 146.171C125.199 147.688 125.752 149.226 126.891 150.243C125.873 150.464 124.796 150.684 123.803 150.358C122.406 149.901 121.568 148.493 120.858 147.212C119.958 145.578 116.538 144.104 116.184 142.267C115.908 140.828 115.014 138.939 114.865 137.478C114.716 136.017 115.734 134.242 114.663 133.241C114.145 132.754 115.532 132.887 115.02 132.39C113.878 131.274 113.596 129.555 113.524 127.958C113.403 125.139 113.757 122.285 113.242 119.51C112.931 117.797 112.283 116.166 111.764 114.5C111.162 112.566 110.728 110.583 110.293 108.594C109.865 106.829 109.554 105.037 109.362 103.23C109.229 101.676 109.288 100.025 109.983 98.6078C110.678 97.1905 112.078 96.0436 113.645 96.0623C118.874 96.1555 117.974 103.289 119.129 106.583Z" fill="#14957D"/>
<path opacity="0.1" fill-rule="evenodd" clip-rule="evenodd" d="M104.164 107.799C104.654 108.374 105.284 109.004 106.026 108.893C105.909 109.078 105.665 109.137 105.477 109.023C105.299 108.905 105.156 108.741 105.064 108.548L104.003 106.754C103.863 106.521 102.901 105.163 102.665 105.946C102.572 106.279 103.925 107.519 104.164 107.799Z" fill="black"/>
<path opacity="0.1" fill-rule="evenodd" clip-rule="evenodd" d="M103.593 112.271C103.563 111.685 103.316 111.131 102.901 110.717C102.528 110.378 102.093 110.115 101.619 109.943C100.455 109.464 99.0776 109.079 97.8145 109.141C98.2738 109.813 99.7479 110.214 100.487 110.593C101.533 111.134 102.569 111.693 103.593 112.271Z" fill="black"/>
<path opacity="0.1" fill-rule="evenodd" clip-rule="evenodd" d="M106.898 125.002C106.684 126.593 105.384 127.799 104.068 128.732C102.752 129.664 101.275 130.466 100.415 131.815C99.8193 132.747 99.5524 133.829 99.0466 134.802C98.4879 135.874 97.6531 136.775 96.9859 137.782C96.3186 138.789 95.7973 139.992 96.0021 141.186C96.008 141.297 96.0597 141.4 96.1448 141.472C96.2749 141.527 96.424 141.51 96.539 141.428C97.8921 140.72 98.4259 139.1 98.9938 137.699C99.59 136.284 100.261 134.902 101.005 133.559C101.34 132.937 101.709 132.259 102.333 131.914C102.76 131.736 103.198 131.584 103.643 131.457C104.274 131.167 104.828 130.732 105.26 130.186C106.954 128.162 107.838 125.581 107.742 122.941C107.724 122.385 107.693 119.706 106.858 120.532C106.023 121.359 107.041 123.92 106.898 125.002Z" fill="black"/>
<path fill-rule="evenodd" clip-rule="evenodd" d="M108.943 63.968C111.612 65.1335 113.909 67.6977 113.825 70.6038C113.754 73.6559 111.203 76.5309 112.081 79.4557C112.59 81.1527 114.123 82.2903 115.337 83.5801C119.958 88.4785 119.948 97.0289 115.312 101.918C113.537 103.783 111.256 105.11 109.378 106.891C102.758 113.138 102.476 123.945 106.02 132.334C103.305 132.922 100.537 133.234 97.7586 133.266C96.4583 133.266 94.8662 133.046 94.3945 131.83C93.96 130.708 94.7049 129.192 93.8483 128.362C93.4449 127.973 92.8397 127.92 92.2966 127.83C88.8021 127.265 85.9345 124.47 84.6249 121.179C83.3152 117.887 83.3835 114.183 84.1345 110.72C84.6683 108.218 85.5031 105.464 84.2649 103.226C82.7131 100.411 78.2504 99.2232 78.3186 96.0032C78.3745 93.3645 81.4811 92.0808 83.2438 90.1196C86.4962 86.508 84.9476 80.9041 84.9414 76.0368C84.9414 71.7538 86.4373 67.3341 89.6214 64.4808C94.3573 60.2009 103.478 61.5903 108.943 63.968Z" fill="#A26565"/>
<g opacity="0.1">
<path fill-rule="evenodd" clip-rule="evenodd" d="M84.7738 100.034C83.4114 97.5728 79.8331 96.3545 79.0014 93.9332C78.5853 94.4983 78.3514 95.1771 78.331 95.8789C78.2628 99.0989 82.7193 100.286 84.2772 103.105C84.7888 104.103 85.0042 105.227 84.8979 106.344C85.3883 104.181 85.8197 101.924 84.7738 100.034Z" fill="black"/>
<path fill-rule="evenodd" clip-rule="evenodd" d="M112.438 75.4711C112.997 73.8393 113.807 72.192 113.847 70.4981C113.853 70.3146 113.847 70.1309 113.831 69.948C113.208 71.819 112.252 73.6342 112.438 75.4711Z" fill="black"/>
<path fill-rule="evenodd" clip-rule="evenodd" d="M85.3076 84.1644C86.3752 80.7859 85.4534 76.5962 85.4503 72.8478C85.4503 72.394 85.469 71.9372 85.5031 71.4834C85.1354 72.932 84.9498 74.4209 84.9507 75.9155C84.9569 78.5916 85.4255 81.4946 85.3076 84.1644Z" fill="black"/>
<path fill-rule="evenodd" clip-rule="evenodd" d="M115.83 98.7384C114.055 100.603 111.774 101.93 109.896 103.711C106.544 106.872 104.822 111.202 104.391 115.793C105.191 112.374 106.808 109.225 109.4 106.779C111.262 105.007 113.558 103.686 115.333 101.806C117.445 99.5014 118.671 96.521 118.794 93.3955C118.258 95.3928 117.24 97.2275 115.83 98.7384Z" fill="black"/>
<path fill-rule="evenodd" clip-rule="evenodd" d="M98.2769 130.077C96.9766 130.077 95.3845 129.854 94.9128 128.638C94.4783 127.519 95.2231 126.003 94.3666 125.17C93.9631 124.781 93.3549 124.728 92.8149 124.638C89.3235 124.076 86.4559 121.278 85.1462 117.99C84.1811 115.559 83.9731 112.908 84.2152 110.291C84.1904 110.394 84.1686 110.496 84.1469 110.602C83.4083 114.064 83.3307 117.772 84.6373 121.064C85.9438 124.355 88.8145 127.15 92.3059 127.712C92.8583 127.802 93.4666 127.858 93.8576 128.244C94.7235 129.077 93.9693 130.593 94.4038 131.712C94.8755 132.928 96.4676 133.167 97.768 133.151C100.546 133.119 103.314 132.807 106.029 132.219C105.646 131.312 105.312 130.386 105.027 129.443C102.798 129.84 100.54 130.052 98.2769 130.077Z" fill="black"/>
</g>
<path opacity="0.1" fill-rule="evenodd" clip-rule="evenodd" d="M108.441 116.523C109.207 117.101 110.039 114.897 109.564 114.347C109.437 114.49 108.323 116.442 108.441 116.523Z" fill="black"/>
<path opacity="0.1" fill-rule="evenodd" clip-rule="evenodd" d="M111.709 156.412C112.612 156.102 113.571 155.791 114.16 155.045C114.648 154.445 115.048 152.064 114.018 153.205C113.142 154.184 112.73 155.474 111.709 156.412Z" fill="black"/>
<path opacity="0.1" fill-rule="evenodd" clip-rule="evenodd" d="M120.904 153.917C120.796 154.65 120.594 155.412 120.076 155.94C119.979 156.039 119.765 156.102 119.737 155.968C120.316 155.659 120.854 155.279 121.339 154.837C122.388 153.795 122.53 151.231 120.932 150.551C120.917 151.676 121.075 152.773 120.904 153.917Z" fill="black"/>
<path fill-rule="evenodd" clip-rule="evenodd" d="M131.943 149.295C131.943 149.295 123.136 145.829 119.951 146.187C116.767 146.544 123.558 151.57 123.558 151.57L127.617 154.311C127.617 154.311 130.1 153.379 130.264 153.307C130.429 153.236 131.943 149.295 131.943 149.295Z" fill="#454B69"/>
<path fill-rule="evenodd" clip-rule="evenodd" d="M71.342 112.116C71.342 112.116 77.9586 108.274 86.6917 113.048C95.4248 117.822 96.8803 145.916 96.8803 145.916C96.8803 145.916 93.3082 174.539 107.081 168.17C107.081 168.17 132.219 160.354 134.736 162.075C134.736 162.075 137.12 162.075 132.356 163.135C127.592 164.195 109.189 170.035 109.189 170.035C109.189 170.035 103.239 172.118 100.719 170.035C98.1993 167.953 91.0582 170.303 90.1303 155.987C89.5162 146.965 88.4118 137.984 86.822 129.083L84.3672 121.794L71.342 112.116Z" fill="#565661"/>
<path fill-rule="evenodd" clip-rule="evenodd" d="M70.5476 156.381C70.5476 156.381 73.4586 127.358 68.6855 116.887C64.5331 107.761 80.5903 112.029 84.78 113.272C85.4284 113.466 85.9939 113.871 86.3876 114.422C88.8703 117.919 97.7772 131.933 95.1517 150.684C95.1517 150.684 94.0935 167.384 100.71 170.032L80.3235 163.455C78.6693 162.921 76.9903 162.476 75.2959 162.091C73.1359 161.6 69.6166 160.204 70.5476 156.381Z" fill="white"/>
<path fill-rule="evenodd" clip-rule="evenodd" d="M215.544 210.565H218.191L219.926 174.934L220.044 172.907L217.794 172.115L217.645 174.269L215.544 210.565Z" fill="#565661"/>
<path opacity="0.1" fill-rule="evenodd" clip-rule="evenodd" d="M217.645 174.269L219.926 174.934L220.044 172.907L217.794 172.115L217.645 174.269Z" fill="black"/>
<path fill-rule="evenodd" clip-rule="evenodd" d="M193.441 196.805C193.376 197.293 193.251 197.772 193.069 198.229C192.88 198.826 192.476 199.332 191.936 199.646C191.573 199.796 191.184 199.874 190.791 199.873C189.329 199.96 187.783 199.938 186.527 199.192C185.991 198.847 185.5 198.437 185.065 197.971C182.24 195.16 179.673 192.102 177.393 188.833C177.011 188.283 176.617 187.633 176.788 186.968C179.741 186.148 182.545 184.863 185.096 183.161C185.448 182.89 185.842 182.68 186.263 182.539C186.983 182.385 187.724 182.358 188.454 182.458C189.158 182.573 189.189 182.595 189.459 183.391C189.906 184.737 189.832 186.188 190.334 187.534C190.654 188.278 191.042 188.989 191.495 189.66C192.792 191.832 193.789 194.397 193.441 196.805Z" fill="#A26565"/>
<path opacity="0.1" fill-rule="evenodd" clip-rule="evenodd" d="M193.441 196.805C193.376 197.293 193.251 197.772 193.069 198.229C192.88 198.826 192.476 199.332 191.936 199.646C191.573 199.796 191.184 199.874 190.791 199.873C189.329 199.96 187.783 199.938 186.527 199.192C185.991 198.847 185.5 198.437 185.065 197.971C182.24 195.16 179.673 192.102 177.393 188.833C177.011 188.283 176.617 187.633 176.788 186.968C177.751 186.701 178.7 186.383 179.631 186.017L179.677 186.051C180.63 186.732 181.322 187.708 181.995 188.665L184.168 191.727C184.555 192.328 185.012 192.881 185.53 193.374C186.172 193.89 186.881 194.317 187.638 194.642C188.659 195.136 189.68 195.631 190.741 196.028C191.427 196.305 192.588 196.414 193.441 196.805Z" fill="black"/>
<path fill-rule="evenodd" clip-rule="evenodd" d="M195.446 163.614C195.232 164.13 194.972 164.627 194.67 165.096C191.785 169.947 189.56 175.162 188.053 180.603C187.625 180.506 187.383 181.091 187.386 181.535C187.389 181.98 187.386 182.539 186.977 182.701C186.855 182.747 186.719 182.747 186.601 182.8C186.34 182.918 186.266 183.251 186.229 183.537L185.862 186.229C185.735 187.161 185.623 188.171 186.08 188.995C186.394 189.484 186.803 189.907 187.281 190.238L193.339 195.024C193.587 195.22 193.894 195.429 194.192 195.32C194.872 195.071 194.27 193.853 194.813 193.359C195.173 193.02 195.744 193.275 196.243 193.234C196.895 193.184 197.389 192.585 197.553 191.954C197.669 191.311 197.68 190.654 197.587 190.008C197.546 189.713 197.58 189.413 197.687 189.135C197.872 188.84 198.126 188.595 198.428 188.423C200.563 186.862 201.784 184.342 201.69 181.697C201.641 181.3 201.655 180.898 201.733 180.506C201.86 180.148 202.05 179.815 202.295 179.524C204.495 176.544 206.33 173.308 208.151 170.079C209.2 168.214 210.268 166.321 210.634 164.22C210.698 164.062 210.685 163.882 210.597 163.735C210.509 163.588 210.357 163.492 210.187 163.474C209.278 163.19 208.351 162.968 207.413 162.809C204.561 162.231 201.808 161.339 199.033 160.481C196.259 159.623 196.281 161.37 195.446 163.614Z" fill="#454B69"/>
<path fill-rule="evenodd" clip-rule="evenodd" d="M182.328 218.102L186.697 218.631L206.811 172.907L212.236 172.509L221.766 175.294L223.616 229.733H227.982L226.263 173.305L236.719 173.572L255.377 220.088H259.346L239.723 165.724L238.969 163.629L209.722 162.626L202.432 166.719L202.339 166.955L182.328 218.102Z" fill="#565661"/>
<path opacity="0.1" fill-rule="evenodd" clip-rule="evenodd" d="M202.339 166.955C208.623 168.851 215.147 170.921 215.147 170.921C215.147 170.921 221.096 173 223.616 170.921C223.934 170.673 224.289 170.477 224.668 170.34C224.341 170.574 223.988 170.769 223.616 170.921L239.723 165.721L238.978 163.629L209.731 162.626L202.441 166.719L202.339 166.955Z" fill="black"/>
<path fill-rule="evenodd" clip-rule="evenodd" d="M232.085 157.932L220.177 155.281C220.177 155.281 191.725 160.583 189.608 162.703C189.608 162.703 212.369 167.341 214.883 168.919C217.397 170.498 232.352 172.245 232.085 157.932Z" fill="white"/>
<path fill-rule="evenodd" clip-rule="evenodd" d="M187.898 200.538C187.181 201.906 185.415 202.291 183.864 202.313C181.709 202.34 179.569 201.957 177.558 201.185C176.409 200.743 175.308 200.175 174.122 199.851C172.356 199.366 170.398 199.407 168.846 198.434C168.023 197.885 167.343 197.146 166.863 196.28C166.773 196.128 166.686 195.969 166.605 195.808C165.864 194.362 165.519 192.681 165.932 191.121C166.345 189.56 167.844 187.842 169.582 187.866C171.645 187.898 174.107 188.877 176.099 189.383C178.582 190.005 181.064 190.723 183.259 192.038C185.096 193.144 186.719 194.732 187.585 196.672C187.751 197.046 187.888 197.432 187.994 197.828C188.264 198.723 188.327 199.721 187.898 200.538Z" fill="#A26565"/>
<path opacity="0.1" fill-rule="evenodd" clip-rule="evenodd" d="M187.898 200.538C187.181 201.906 185.415 202.291 183.864 202.313C181.709 202.34 179.569 201.957 177.558 201.185C176.409 200.743 175.308 200.175 174.122 199.851C172.356 199.366 170.398 199.407 168.846 198.434C168.023 197.885 167.343 197.146 166.863 196.28C166.773 196.128 166.686 195.969 166.605 195.808C166.916 195.833 167.201 195.864 167.357 195.879C169.262 196.063 171.081 196.759 172.899 197.284C175.424 198.014 178.031 198.422 180.658 198.496C182.52 198.549 184.463 198.412 186.089 197.502C186.575 197.195 187.078 196.918 187.597 196.672C187.764 197.046 187.901 197.432 188.007 197.828C188.264 198.723 188.327 199.721 187.898 200.538Z" fill="black"/>
<path fill-rule="evenodd" clip-rule="evenodd" d="M201.234 141.441C197.199 140.779 193.09 140.617 189 140.455L183.997 140.256C183.641 140.215 183.281 140.259 182.945 140.384C182.656 140.57 182.381 140.778 182.123 141.006C181.62 141.347 180.978 141.385 180.372 141.419C176.079 141.656 171.81 142.211 167.599 143.079C165.426 143.523 163.17 144.104 161.538 145.606C159.812 147.194 159.055 149.615 158.996 151.959C158.937 154.302 159.551 156.605 160.2 158.855C161.026 161.564 161.482 164.372 161.556 167.204C161.527 167.989 161.557 168.776 161.646 169.557C161.791 170.302 162.01 171.031 162.301 171.732L164.585 177.84C164.787 178.374 164.986 178.906 165.206 179.428C165.426 179.95 165.637 180.36 165.827 180.851C166.106 181.523 166.326 182.219 166.547 182.912L168.067 187.696L168.266 188.317C168.815 190.039 169.377 191.792 170.413 193.271C171.45 194.751 173.054 195.944 174.858 196.035C175.439 196.013 176.022 196.028 176.602 196.081C177.096 196.202 177.576 196.376 178.032 196.6C179.386 197.164 180.84 197.448 182.306 197.436C183.656 197.436 185.155 197.06 185.887 195.923C186.291 195.301 186.396 194.536 186.508 193.803C186.703 192.33 186.893 190.791 186.393 189.393C186.083 188.556 185.561 187.839 185.201 187.015C184.699 185.893 184.534 184.653 184.208 183.469C183.503 180.92 182.068 178.633 180.081 176.892C179.375 174.093 178.856 171.25 178.529 168.382C178.483 167.747 178.357 167.12 178.153 166.517C177.79 165.584 177.055 164.829 176.748 163.878C176.459 162.995 176.546 161.976 176.021 161.214C180.388 162.417 184.711 162.147 189.245 162.075C190.697 162.08 192.148 161.997 193.59 161.827C194.262 161.703 194.943 161.631 195.626 161.609C197.029 161.609 198.344 162.231 199.632 162.778C203.273 164.332 207.109 165.553 211.062 165.721C215.143 165.892 219.178 164.932 223.166 163.981C224.919 163.561 226.741 163.107 228.131 161.954C229.522 160.801 230.304 158.722 229.447 157.14C228.796 155.949 227.446 155.365 226.186 154.868C222.697 153.488 219.19 152.142 215.829 150.473C210.696 147.968 206.857 142.373 201.234 141.441Z" fill="#454B69"/>
<path fill-rule="evenodd" clip-rule="evenodd" d="M194.04 127.38C193.553 128.436 192.733 129.3 192.128 130.295C191.116 131.932 190.782 133.901 191.197 135.781C191.639 137.665 192.929 139.236 194.689 140.036C195.464 140.345 196.279 140.542 197.109 140.62C198.202 140.754 199.366 140.782 200.331 140.253C201.053 139.819 201.646 139.199 202.047 138.457C202.882 137.058 203.357 135.482 203.791 133.913C204.595 131.016 205.281 128.045 205.181 125.039C205.147 124.004 204.942 122.839 204.086 122.242C203.644 121.986 203.153 121.825 202.646 121.769L198.552 121.036C197.761 120.893 196.38 120.312 195.694 120.884C195.008 121.456 194.956 123.146 194.838 123.939C194.651 125.111 194.537 126.301 194.04 127.38Z" fill="#A1616A"/>
<path fill-rule="evenodd" clip-rule="evenodd" d="M243.798 115.357L242.727 124.346C242.505 125.949 242.378 127.564 242.345 129.182C242.345 130.084 242.373 131.084 241.777 131.759C241.486 132.066 241.117 132.288 240.71 132.402C239.409 132.806 237.991 132.446 236.75 131.889C236.023 131.579 235.282 131.128 234.953 130.404C234.762 129.902 234.682 129.364 234.72 128.828C234.72 123.466 235.226 117.875 238.022 113.306C238.261 112.858 238.597 112.469 239.006 112.169C239.782 111.671 240.797 111.811 241.675 112.081C242.215 112.246 243.673 112.43 244.018 112.911C244.362 113.393 243.872 114.739 243.798 115.357Z" fill="#A1616A"/>
<path fill-rule="evenodd" clip-rule="evenodd" d="M215.392 82.8528C221.562 82.8528 226.564 77.8433 226.564 71.6636C226.564 65.484 221.562 60.4745 215.392 60.4745C209.221 60.4745 204.219 65.484 204.219 71.6636C204.219 77.8433 209.221 82.8528 215.392 82.8528Z" fill="#A1616A"/>
<path fill-rule="evenodd" clip-rule="evenodd" d="M212.403 88.3386C212.363 89.2092 212.126 90.0593 211.711 90.8251C217.415 89.9549 223.105 88.9851 228.78 87.9159C226.897 86.9466 225.473 85.2706 224.82 83.2538C224.511 82.1723 224.342 81.0557 224.317 79.9312C224.227 78.148 224.261 76.3606 224.42 74.5822C222.433 74.7904 220.553 75.5363 218.66 76.1766C216.756 76.8208 214.82 77.3634 212.859 77.8022C211.913 78.0135 210.96 78.1938 210.004 78.3616C208.887 78.5605 208.35 78.5574 209.126 79.5396C211.208 82.1628 212.695 84.8296 212.403 88.3386Z" fill="#A1616A"/>
<path fill-rule="evenodd" clip-rule="evenodd" d="M215.836 86.8436C214.361 87.0643 212.816 87.313 211.64 88.2268C211.192 88.6119 210.766 89.0217 210.364 89.4545C208.027 91.7265 204.728 92.6403 201.892 94.2441C201.429 94.4731 201.019 94.7959 200.688 95.192C200.377 95.6241 200.219 96.1742 199.893 96.6031C199.514 97.1004 198.916 97.4112 198.621 97.9614C198.326 98.5115 198.391 99.0958 198.36 99.6801C198.289 100.964 197.804 102.182 197.429 103.41C195.707 109.287 196.65 115.842 194.043 121.393C194.285 122.04 194.781 122.558 195.415 122.829C196.071 123.066 196.756 123.213 197.451 123.268L203.226 123.986C204.052 124.088 204.927 124.184 205.681 123.839C204.991 125.744 204.503 127.716 204.226 129.723C204.085 130.95 203.867 132.167 203.574 133.366C202.779 136.101 200.781 138.379 198.413 139.936C198.114 140.093 197.863 140.326 197.683 140.611C197.373 141.232 197.832 141.929 198.158 142.538C199.105 144.303 198.974 146.423 198.962 148.425C198.95 150.426 199.151 152.624 200.548 154.06C201.373 154.908 202.503 155.368 203.602 155.806L212.636 159.421C214.127 160.057 215.664 160.576 217.235 160.975C219.616 161.519 222.089 161.497 224.531 161.392C226.145 161.323 227.757 161.22 229.367 161.081C230.007 161.079 230.636 160.913 231.194 160.599C231.675 160.219 232.045 159.717 232.265 159.144C233.522 156.406 233.944 153.211 235.893 150.917C237.231 149.341 239.307 148.083 239.459 146.022C239.53 144.996 239.074 143.999 239.068 142.97C239.068 141.705 239.729 140.502 239.689 139.24C239.605 137.186 237.671 135.619 237.364 133.586C236.582 128.433 239.195 123.286 240.8 118.329C241.088 117.443 241.461 116.464 242.311 116.085C243.161 115.706 244.359 115.904 244.663 115.065C245.43 112.958 245.613 110.487 245.514 108.246C245.458 106.95 244.999 105.682 245.051 104.383C245.089 103.469 245.38 102.58 245.458 101.669C245.576 100.292 245.213 98.9249 244.837 97.5946C244.729 97.1197 244.566 96.6587 244.353 96.2208C244.124 95.8236 243.853 95.4516 243.546 95.1112L242.035 93.3116C241.327 92.4693 240.579 91.5959 239.552 91.1701C239.22 90.3465 238.159 89.7777 237.398 89.3239C236.632 88.8884 235.84 88.4991 235.027 88.1584L226.48 84.3789C226.161 84.2178 225.819 84.1067 225.466 84.0495C224.945 84.032 224.428 84.1385 223.957 84.3603C221.35 85.3953 218.629 86.4272 215.836 86.8436Z" fill="#14957D"/>
<path fill-rule="evenodd" clip-rule="evenodd" d="M206.783 73.6093C206.454 72.45 205.613 71.4492 205.485 70.2495C205.371 69.1834 205.839 68.1515 206.106 67.1134C206.373 66.0753 206.364 64.8072 205.541 64.1172C205.405 63.9991 205.231 63.8934 205.181 63.7193C205.082 63.4085 205.395 63.1257 205.492 62.8118C205.669 62.1901 204.902 61.5032 205.181 60.9065C205.34 60.5801 205.737 60.4651 206.084 60.3626C207.413 59.9678 208.76 59.0913 209.048 57.7331C210.088 58.1682 211.196 57.3508 211.993 56.5582C212.791 55.7657 213.772 54.8612 214.87 55.1005L214.625 55.6009C216.319 54.985 218.172 54.9642 219.879 55.5419H219.358C220.856 55.5673 222.308 56.0594 223.513 56.9499C223.38 56.9499 223.368 57.1488 223.42 57.2607C223.855 58.277 224.972 58.8147 226.049 59.0665C226.698 59.2219 227.402 59.3338 227.877 59.8C228.352 60.2662 228.361 61.239 227.734 61.4628C229.013 61.9613 230.223 62.6192 231.337 63.4209C231.648 63.6478 231.998 63.9555 231.958 64.3534C231.914 64.5531 231.849 64.7478 231.765 64.9346C231.704 65.2663 231.726 65.6084 231.831 65.9292L232.175 67.3527C232.554 68.9347 232.852 70.84 231.7 71.9869C232.585 73.6429 232.281 75.6842 230.952 77.0096C231.137 77.5713 231.073 78.1852 230.777 78.6966C230.48 79.208 229.979 79.568 229.401 79.6857C229.782 80.2824 229.432 81.1341 228.83 81.507C228.228 81.88 227.47 81.8831 226.769 81.8178C226.068 81.7526 225.357 81.5941 224.655 81.6997C223.634 81.8582 222.635 82.5545 221.651 82.2436C221.285 82.0866 220.933 81.8973 220.599 81.678C219.91 81.3081 219.11 81.2242 218.346 81.0563C217.045 80.7762 215.809 80.2487 214.706 79.5023C213.975 79.0621 213.392 78.4125 213.033 77.6374C212.35 75.9093 213.499 73.6435 212.291 72.2355C211.584 71.415 210.181 71.4026 209.39 72.105C208.995 72.4562 208.943 73.1959 208.533 73.4601C207.962 73.6049 207.37 73.6553 206.783 73.6093Z" fill="#464353"/>
<path opacity="0.1" fill-rule="evenodd" clip-rule="evenodd" d="M191.601 162.731C191.16 162.382 190.779 161.962 190.474 161.488C190.168 161.012 190.047 160.441 190.133 159.881C189.887 161.316 190.335 162.783 191.34 163.835C192.119 164.633 193.581 165.417 194.72 165.143C194.558 164.229 192.324 163.347 191.601 162.731Z" fill="black"/>
<path fill-rule="evenodd" clip-rule="evenodd" d="M252.993 112.737C252.993 112.737 246.377 108.896 237.643 113.67C228.91 118.444 227.455 146.538 227.455 146.538C227.455 146.538 231.027 175.161 217.254 168.792C217.254 168.792 192.116 160.975 189.599 162.697C189.599 162.697 187.215 162.697 191.979 163.757C196.743 164.817 215.147 170.657 215.147 170.657C215.147 170.657 221.096 172.739 223.616 170.657C226.136 168.574 233.277 170.924 234.205 156.608C234.819 147.587 235.923 138.606 237.513 129.704L239.968 122.416L252.993 112.737Z" fill="#565661"/>
<path fill-rule="evenodd" clip-rule="evenodd" d="M253.788 157.003C253.788 157.003 250.877 127.979 255.65 117.508C259.802 108.383 243.745 112.65 239.555 113.894C238.907 114.088 238.341 114.492 237.948 115.044C235.465 118.54 226.558 132.555 229.183 151.306C229.183 151.306 230.242 168.006 223.625 170.654L244.012 164.077C245.666 163.542 247.345 163.098 249.039 162.713C251.199 162.221 254.719 160.826 253.788 157.003Z" fill="white"/>
<path opacity="0.1" fill-rule="evenodd" clip-rule="evenodd" d="M307.232 213.44C323.933 213.44 337.472 211.262 337.472 208.576C337.472 205.889 323.933 203.712 307.232 203.712C290.531 203.712 276.992 205.889 276.992 208.576C276.992 211.262 290.531 213.44 307.232 213.44Z" fill="#14957D"/>
<rect x="306.258" y="115.392" width="1.94586" height="43.8772" fill="#535461"/>
<path fill-rule="evenodd" clip-rule="evenodd" d="M320.434 159.135L320.313 161.112L320.139 163.909L320.068 165.072L319.897 167.869L319.823 169.031L319.649 171.829L317.688 203.553C317.501 206.379 315.159 208.575 312.331 208.576H302.13C299.297 208.575 296.953 206.366 296.78 203.534L294.812 171.807L294.641 169.01L294.57 167.847L294.393 165.05L294.322 163.887L294.151 161.09L294.027 159.113C293.983 158.348 294.256 157.598 294.78 157.039C295.305 156.48 296.036 156.161 296.801 156.158H317.663C318.432 156.162 319.165 156.484 319.69 157.047C320.214 157.611 320.484 158.366 320.434 159.135Z" fill="#565661"/>
<path fill-rule="evenodd" clip-rule="evenodd" d="M320.313 161.112L320.139 163.9H294.325L294.151 161.112H320.313Z" fill="#9D9CB5"/>
<path fill-rule="evenodd" clip-rule="evenodd" d="M320.068 165.065L319.897 167.856H294.57L294.396 165.065H320.068Z" fill="#9D9CB5"/>
<path fill-rule="evenodd" clip-rule="evenodd" d="M319.823 169.019L319.649 171.807H294.815L294.641 169.019H319.823Z" fill="#9D9CB5"/>
<path fill-rule="evenodd" clip-rule="evenodd" d="M291.178 131.837C302.512 140.048 307.232 152.891 307.232 152.891C307.232 152.891 293.577 152.422 282.24 144.21C270.903 135.998 266.189 123.159 266.189 123.159C266.189 123.159 279.847 123.628 291.178 131.837Z" fill="#14957D"/>
<path d="M266.189 123.159C266.189 123.159 280.362 131.038 284.912 137.562C289.462 144.086 307.232 152.891 307.232 152.891" stroke="white" stroke-width="0.684926"/>
<path d="M266.189 123.159C266.189 123.159 280.362 131.038 284.912 137.562C289.462 144.086 307.232 152.891 307.232 152.891" stroke="url(#paint1_linear)" stroke-width="0.684926"/>
<path d="M266.189 123.159C266.189 123.159 280.362 131.038 284.912 137.562C289.462 144.086 307.232 152.891 307.232 152.891" stroke="url(#paint2_linear)" stroke-width="0.684926"/>
<path fill-rule="evenodd" clip-rule="evenodd" d="M298.493 115.295C304.662 119.762 307.232 126.755 307.232 126.755C307.232 126.755 299.784 126.497 293.63 122.031C287.475 117.564 284.909 110.571 284.909 110.571C284.909 110.571 292.326 110.826 298.493 115.295Z" fill="#14957D"/>
<path d="M284.909 110.571C284.909 110.571 292.624 114.86 295.098 118.41C297.571 121.959 307.248 126.755 307.248 126.755" stroke="white" stroke-width="0.684926"/>
<path d="M284.909 110.571C284.909 110.571 292.624 114.86 295.098 118.41C297.571 121.959 307.248 126.755 307.248 126.755" stroke="url(#paint3_linear)" stroke-width="0.684926"/>
<path d="M284.909 110.571C284.909 110.571 292.624 114.86 295.098 118.41C297.571 121.959 307.248 126.755 307.248 126.755" stroke="url(#paint4_linear)" stroke-width="0.684926"/>
<path fill-rule="evenodd" clip-rule="evenodd" d="M316.195 126.397C309.11 134.196 307.611 144.387 307.611 144.387C307.611 144.387 317.601 141.932 324.68 134.13C331.759 126.329 333.264 116.141 333.264 116.141C333.264 116.141 323.28 118.599 316.195 126.397Z" fill="#14957D"/>
<path d="M333.27 116.144C333.27 116.144 324.04 124.138 321.694 129.645C319.348 135.153 307.611 144.387 307.611 144.387" stroke="white" stroke-width="0.684926"/>
<path d="M333.27 116.144C333.27 116.144 324.04 124.138 321.694 129.645C319.348 135.153 307.611 144.387 307.611 144.387" stroke="url(#paint5_linear)" stroke-width="0.684926"/>
<path d="M333.27 116.144C333.27 116.144 324.04 124.138 321.694 129.645C319.348 135.153 307.611 144.387 307.611 144.387" stroke="url(#paint6_linear)" stroke-width="0.684926"/>
<path fill-rule="evenodd" clip-rule="evenodd" d="M172.856 107.624V108.333H151.873V107.758C152.449 107.542 152.993 107.252 153.493 106.894C155.301 105.598 156.374 103.508 156.373 101.281C156.374 100.707 156.302 100.136 156.159 99.5807C155.645 97.5561 154.244 95.8731 152.348 95.0024H172.713C170.817 95.8731 169.416 97.5561 168.902 99.5807C168.761 100.136 168.69 100.707 168.691 101.281C168.69 103.507 169.761 105.597 171.568 106.894C171.971 107.182 172.402 107.427 172.856 107.624Z" fill="#DFE6F5"/>
<path opacity="0.1" fill-rule="evenodd" clip-rule="evenodd" d="M172.713 95.0024C170.817 95.8731 169.416 97.5561 168.902 99.5807H156.159C155.645 97.5561 154.244 95.8731 152.348 95.0024H172.713Z" fill="black"/>
<path fill-rule="evenodd" clip-rule="evenodd" d="M127.85 91.3815V95.3723C127.85 97.5728 129.457 99.36 131.443 99.36H193.174C195.16 99.36 196.771 97.5728 196.771 95.3723V91.3815H127.85Z" fill="#DFE6F5"/>
<path opacity="0.1" fill-rule="evenodd" clip-rule="evenodd" d="M172.856 107.624V108.333H151.873V107.758C152.449 107.542 152.993 107.252 153.493 106.894H171.568C171.971 107.182 172.402 107.427 172.856 107.624Z" fill="black"/>
<rect x="144.94" y="107.115" width="34.8486" height="2.10419" rx="1.05209" fill="#DFE6F5"/>
<path fill-rule="evenodd" clip-rule="evenodd" d="M196.771 47.6722C196.771 46.7171 196.392 45.8011 195.717 45.126C195.043 44.451 194.128 44.0721 193.174 44.073H131.443C130.49 44.0721 129.576 44.4511 128.901 45.1262C128.227 45.8014 127.849 46.7173 127.85 47.6722V92.1585H196.771V47.6722Z" fill="#474157"/>
<path fill-rule="evenodd" clip-rule="evenodd" d="M194.89 49.2791V87.5088C194.891 87.9792 194.705 88.4306 194.373 88.7635C194.041 89.0964 193.591 89.2835 193.121 89.2835H131.499C131.03 89.2835 130.579 89.0964 130.247 88.7635C129.915 88.4306 129.729 87.9792 129.73 87.5088V49.2791C129.729 48.968 129.81 48.6622 129.966 48.3932C130.282 47.8447 130.867 47.507 131.499 47.5074H193.121C194.098 47.5074 194.89 48.3006 194.89 49.2791Z" fill="#4C4C78"/>
<path fill-rule="evenodd" clip-rule="evenodd" d="M162.31 46.6185C162.768 46.6185 163.139 46.247 163.139 45.7886C163.139 45.3303 162.768 44.9588 162.31 44.9588C161.853 44.9588 161.482 45.3303 161.482 45.7886C161.482 46.247 161.853 46.6185 162.31 46.6185Z" fill="white"/>
<path fill-rule="evenodd" clip-rule="evenodd" d="M162.31 97.5853C163.44 97.5853 164.355 96.6682 164.355 95.537C164.355 94.4058 163.44 93.4888 162.31 93.4888C161.181 93.4888 160.265 94.4058 160.265 95.537C160.265 96.6682 161.181 97.5853 162.31 97.5853Z" fill="white"/>
<path fill-rule="evenodd" clip-rule="evenodd" d="M194.89 49.2791H129.737C129.737 48.3006 130.529 47.5074 131.506 47.5074H193.121C194.098 47.5074 194.89 48.3006 194.89 49.2791Z" fill="#C8CAD7"/>
<path fill-rule="evenodd" clip-rule="evenodd" d="M131.499 48.8377C131.744 48.8377 131.943 48.6387 131.943 48.3932C131.943 48.1478 131.744 47.9488 131.499 47.9488C131.254 47.9488 131.055 48.1478 131.055 48.3932C131.055 48.6387 131.254 48.8377 131.499 48.8377Z" fill="#EDEDF4"/>
<path fill-rule="evenodd" clip-rule="evenodd" d="M132.828 48.8377C133.073 48.8377 133.271 48.6387 133.271 48.3932C133.271 48.1478 133.073 47.9488 132.828 47.9488C132.582 47.9488 132.384 48.1478 132.384 48.3932C132.384 48.6387 132.582 48.8377 132.828 48.8377Z" fill="#EDEDF4"/>
<path fill-rule="evenodd" clip-rule="evenodd" d="M134.156 48.8377C134.401 48.8377 134.6 48.6387 134.6 48.3932C134.6 48.1478 134.401 47.9488 134.156 47.9488C133.911 47.9488 133.712 48.1478 133.712 48.3932C133.712 48.6387 133.911 48.8377 134.156 48.8377Z" fill="#EDEDF4"/>
<defs>
<linearGradient id="paint0_linear" x1="119.933" y1="145.993" x2="120.653" y2="145.993" gradientUnits="userSpaceOnUse">
<stop stop-color="#808080" stop-opacity="0.25"/>
<stop offset="0.54" stop-color="#808080" stop-opacity="0.12"/>
<stop offset="1" stop-color="#808080" stop-opacity="0.1"/>
</linearGradient>
<linearGradient id="paint1_linear" x1="286.711" y1="123.159" x2="286.711" y2="152.891" gradientUnits="userSpaceOnUse">
<stop stop-color="white"/>
<stop offset="1" stop-color="white" stop-opacity="0"/>
</linearGradient>
<linearGradient id="paint2_linear" x1="286.711" y1="123.159" x2="286.711" y2="152.891" gradientUnits="userSpaceOnUse">
<stop stop-color="white"/>
<stop offset="1" stop-color="white" stop-opacity="0"/>
</linearGradient>
<linearGradient id="paint3_linear" x1="296.078" y1="110.571" x2="296.078" y2="126.755" gradientUnits="userSpaceOnUse">
<stop stop-color="white"/>
<stop offset="1" stop-color="white" stop-opacity="0"/>
</linearGradient>
<linearGradient id="paint4_linear" x1="296.078" y1="110.571" x2="296.078" y2="126.755" gradientUnits="userSpaceOnUse">
<stop stop-color="white"/>
<stop offset="1" stop-color="white" stop-opacity="0"/>
</linearGradient>
<linearGradient id="paint5_linear" x1="320.44" y1="116.144" x2="320.44" y2="144.387" gradientUnits="userSpaceOnUse">
<stop stop-color="white"/>
<stop offset="1" stop-color="white" stop-opacity="0"/>
</linearGradient>
<linearGradient id="paint6_linear" x1="320.44" y1="116.144" x2="320.44" y2="144.387" gradientUnits="userSpaceOnUse">
<stop stop-color="white"/>
<stop offset="1" stop-color="white" stop-opacity="0"/>
</linearGradient>
</defs>
</svg>
