<svg width="37" height="48" viewBox="0 0 37 48" fill="none" xmlns="http://www.w3.org/2000/svg">
<path fill-rule="evenodd" clip-rule="evenodd" d="M24.5595 6.36679C24.13 4.6749 22.5588 3.44391 20.7469 3.44391C19.774 3.44391 18.83 3.80502 18.1119 4.44208C17.3933 3.80502 16.4498 3.44391 15.4764 3.44391C13.6649 3.44391 12.0933 4.6749 11.6638 6.36679C9.81845 7.23484 8.64693 9.04442 8.64693 11.0799C8.64693 12.4541 9.196 13.7634 10.1679 14.737C10.1038 15.024 10.0714 15.3178 10.0714 15.6146C10.0714 17.8237 11.8668 19.6289 14.1011 19.699C14.5302 20.6994 15.5338 21.3767 16.6826 21.3767L16.7049 21.3763C17.2439 21.3723 17.7364 21.1687 18.1115 20.8379C18.4851 21.1687 18.9761 21.3723 19.5121 21.3763L19.5408 21.3767C20.69 21.3767 21.6935 20.6994 22.1226 19.699C24.3569 19.6289 26.1523 17.8237 26.1523 15.6146C26.1523 15.3178 26.1199 15.024 26.0559 14.737C27.0274 13.7634 27.5764 12.4541 27.5764 11.0799C27.5764 9.04442 26.4049 7.23484 24.5595 6.36679ZM16.6937 19.9728L16.6826 19.9731C16.24 19.9731 15.8429 19.7674 15.5908 19.4421C16.0739 19.2542 16.5216 18.9742 16.9128 18.6117C17.1996 18.3456 17.2126 17.9015 16.9415 17.6197C16.6699 17.3379 16.2173 17.3255 15.9301 17.5916C15.5315 17.9611 15.0476 18.1994 14.5295 18.282C14.4308 18.2922 14.3324 18.2977 14.2363 18.2977C12.7284 18.2977 11.5018 17.0941 11.5018 15.6142C11.5018 15.3196 11.5502 15.0302 11.6456 14.7539C11.96 13.9545 12.6566 13.3379 13.469 13.1168C13.6064 13.5561 13.8229 13.964 14.1104 14.3142C14.252 14.4859 14.4587 14.5755 14.6677 14.5755C14.8253 14.5755 14.984 14.5247 15.1162 14.4202C15.4239 14.1767 15.4719 13.7352 15.2242 13.4333C14.9035 13.0426 14.7266 12.5258 14.7266 11.9775C14.7266 11.5079 14.8543 11.0645 15.0964 10.6961C15.3103 10.3704 15.2145 9.93623 14.8823 9.72607C14.5504 9.51664 14.1075 9.61058 13.8936 9.93623C13.5502 10.4596 13.349 11.0685 13.3055 11.7107C12.3008 11.9223 11.4169 12.5038 10.8197 13.3229C10.3422 12.6764 10.0773 11.8938 10.0773 11.0799C10.0773 9.49362 11.0499 8.09486 12.5545 7.51591C12.7955 7.42344 12.9665 7.21036 13.0019 6.95889C13.1717 5.75495 14.2356 4.84742 15.4764 4.84742C16.1715 4.84742 16.817 5.12081 17.2942 5.61752C17.3601 5.68587 17.3967 5.77688 17.3967 5.873V7.08353C16.484 7.11423 15.6075 7.46109 14.9191 8.07987C14.6278 8.34194 14.6085 8.78565 14.8752 9.07147C15.0164 9.22278 15.2089 9.29917 15.4026 9.29917C15.5751 9.29917 15.7483 9.2385 15.8858 9.11496C16.3071 8.73594 16.8401 8.5192 17.3963 8.48886V19.2659C17.3963 19.6526 17.0811 19.9699 16.6937 19.9728ZM22.9179 11.7107C23.9225 11.9223 24.8065 12.5038 25.4036 13.3229C25.8812 12.6764 26.146 11.8938 26.1456 11.0799C26.1456 9.49362 25.173 8.09486 23.6685 7.51628C23.4275 7.42344 23.2565 7.21036 23.2211 6.95889C23.0513 5.75531 21.9878 4.84742 20.7466 4.84742C20.0515 4.84742 19.4059 5.12081 18.9288 5.61752C18.8628 5.68623 18.8267 5.77688 18.8267 5.873V7.08316C19.7393 7.11386 20.6155 7.46109 21.3038 8.07987C21.5951 8.34194 21.6149 8.78565 21.3478 9.07147C21.207 9.22278 21.014 9.29917 20.8203 9.29917C20.6479 9.29917 20.4746 9.23813 20.3376 9.1146C19.9159 8.73594 19.3828 8.51884 18.8267 8.4885V19.2659C18.8267 19.6526 19.1418 19.9699 19.5296 19.9728L19.5404 19.9731C19.9829 19.9731 20.38 19.7674 20.6322 19.4421C20.1491 19.2542 19.7013 18.9742 19.3106 18.612C19.0234 18.3456 19.0103 17.9015 19.2819 17.6197C19.5531 17.3379 20.0057 17.3255 20.2929 17.5916C20.6914 17.9611 21.1757 18.1994 21.6935 18.282C21.7922 18.2922 21.8909 18.2977 21.9866 18.2977C23.4945 18.2977 24.7216 17.0941 24.7216 15.6142C24.7216 15.3196 24.6728 15.0305 24.5774 14.7542C24.2634 13.9545 23.5668 13.3379 22.7544 13.1168C22.6169 13.5561 22.4005 13.964 22.1129 14.3142C21.9714 14.4859 21.7643 14.5755 21.5557 14.5755C21.3981 14.5755 21.2394 14.5247 21.1072 14.4202C20.7995 14.1767 20.751 13.7352 20.9991 13.4333C21.3199 13.0426 21.4968 12.5258 21.4968 11.9775C21.4968 11.5079 21.3687 11.0645 21.1269 10.6961C20.9131 10.3704 21.0088 9.93623 21.3411 9.72607C21.6734 9.51664 22.1159 9.61058 22.3297 9.93623C22.6732 10.4596 22.8743 11.0685 22.9179 11.7107Z" fill="black"/>
<path fill-rule="evenodd" clip-rule="evenodd" d="M32.4391 25.2736C32.5501 25.3343 32.6447 25.4253 32.7095 25.5324L35.9942 31.0254C36.2222 31.407 36.2826 31.8522 36.1634 32.2787C36.0445 32.7056 35.7618 33.0587 35.3673 33.2729L32.8079 34.6643V39.6055C32.8079 39.8606 32.6667 40.096 32.4391 40.2195L30.1135 41.4838C30.004 41.5433 29.8848 41.5715 29.7675 41.5715C29.516 41.5715 29.2721 41.441 29.1413 41.21C28.9498 40.8708 29.075 40.4439 29.4203 40.2561L31.3774 39.1921V35.4421L23.0378 39.9754C22.7797 40.1153 22.5022 40.1822 22.2288 40.1822C21.6611 40.1822 21.1131 39.8938 20.8032 39.3752L18.8271 36.0704V46.0148L26.5234 41.831C26.8687 41.6431 27.3041 41.7659 27.4956 42.1047C27.6871 42.4439 27.5619 42.8708 27.2166 43.0587L18.4583 47.8196C18.2456 47.9355 17.9781 47.9351 17.7651 47.8196L3.78427 40.2199C3.55667 40.096 3.41549 39.861 3.41549 39.6058V34.6647L0.856019 33.2732C0.461538 33.0587 0.178808 32.7056 0.0599797 32.2791C-0.0592213 31.8522 0.00112422 31.407 0.229096 31.0258L3.51383 25.5327C3.57716 25.4253 3.67401 25.3339 3.78427 25.274L9.09616 22.3862C8.69907 21.7612 8.26995 21.1541 7.80879 20.5686C5.95186 18.2122 4.99229 15.2674 5.10703 12.2773C5.22883 9.09195 6.56687 6.07842 8.87378 3.79224C11.1814 1.50569 14.2389 0.163948 17.4838 0.0140942C20.6285 -0.130277 23.7143 0.83829 26.1728 2.74436C26.4828 2.98449 26.5356 3.42601 26.2905 3.7301C26.0458 4.03383 25.5958 4.08573 25.2859 3.8456C23.0982 2.14933 20.3506 1.28566 17.5509 1.41614C11.5986 1.69063 6.7602 6.48485 6.53632 12.3299C6.43425 14.9922 7.28803 17.6131 8.94046 19.71C11.3558 22.7754 12.9586 26.3935 13.5856 30.1884H22.6396C23.2718 26.4308 24.891 22.7904 27.3332 19.6457C28.8783 17.6555 29.6952 15.2776 29.6952 12.7685C29.6952 10.2641 28.8806 7.88836 27.3391 5.8986C27.1 5.59012 27.1611 5.14969 27.4758 4.91504C27.7902 4.68076 28.2391 4.7407 28.4779 5.04955C30.21 7.28529 31.1253 9.95488 31.1253 12.7685C31.1253 15.5872 30.2074 18.2597 28.4708 20.4962C27.994 21.1102 27.5515 21.7444 27.1428 22.3946L32.4391 25.2736ZM16.1003 31.5919L18.1115 32.6855L20.123 31.5919H16.1003ZM30.6168 25.8876L24.2604 29.3427C24.7014 27.3657 25.4338 25.4341 26.4291 23.6113L30.6168 25.8876ZM11.9693 29.3463C11.5316 27.3452 10.8033 25.4088 9.81323 23.6011L5.60655 25.8876L11.9693 29.3463ZM4.8459 35.4421L6.18617 36.1705C6.29606 36.2305 6.41488 36.2586 6.53222 36.2586C6.78366 36.2586 7.02802 36.1281 7.1584 35.8968C7.34987 35.558 7.22471 35.1307 6.8794 34.9428L1.54888 32.0452C1.47586 32.0053 1.44904 31.9425 1.43936 31.9085C1.42967 31.8745 1.42036 31.8069 1.46245 31.736L4.39443 26.8335L17.1236 33.7531L14.1864 38.665C14.1231 38.7707 13.9879 38.8072 13.8787 38.7476L9.61171 36.4282C9.2664 36.2407 8.83094 36.3631 8.63947 36.702C8.44838 37.0411 8.57317 37.468 8.91848 37.6559L13.1855 39.9753C13.4433 40.1157 13.7208 40.1822 13.9942 40.1822C14.5619 40.1822 15.1099 39.8938 15.4201 39.3756L17.3963 36.0707V46.0145L4.8459 39.1921V35.4421ZM34.6741 32.0452C34.7475 32.0053 34.7743 31.9425 34.7836 31.9085C34.7933 31.8745 34.803 31.8069 34.7605 31.736L31.8289 26.8335L19.0994 33.7531L22.0369 38.665C22.0999 38.7707 22.2351 38.8072 22.3446 38.7476L34.6741 32.0452Z" fill="black"/>
<path fill-rule="evenodd" clip-rule="evenodd" d="M3.25346 20.3357H3.25681C3.65203 20.3339 3.97053 20.0181 3.96866 19.6307L3.96792 19.456C3.96568 19.0693 3.6457 18.7575 3.25271 18.7575C3.25122 18.7575 3.2501 18.7575 3.24899 18.7575C2.85413 18.7593 2.53527 19.0751 2.53713 19.4629L2.53825 19.6376C2.54011 20.024 2.85972 20.3357 3.25346 20.3357Z" fill="black"/>
<path fill-rule="evenodd" clip-rule="evenodd" d="M2.5442 22.2133C2.54606 22.6 2.86604 22.9118 3.2594 22.9118H3.26276C3.65798 22.9099 3.97647 22.5942 3.97461 22.2064L3.97387 22.0317C3.97163 21.6453 3.65202 21.3336 3.25866 21.3336C3.25754 21.3336 3.25605 21.3336 3.25493 21.3336C2.86008 21.3354 2.54122 21.6512 2.54345 22.0386L2.5442 22.2133Z" fill="black"/>
<path fill-rule="evenodd" clip-rule="evenodd" d="M4.47936 21.5338H4.48346L4.66114 21.5331C5.05637 21.5309 5.37486 21.2151 5.37299 20.8277C5.37076 20.4413 5.05115 20.1296 4.65779 20.1296C4.6563 20.1296 4.65518 20.1296 4.65406 20.1296L4.47601 20.1303C4.08078 20.1325 3.76229 20.4483 3.76415 20.8357C3.76639 21.222 4.086 21.5338 4.47936 21.5338Z" fill="black"/>
<path fill-rule="evenodd" clip-rule="evenodd" d="M1.85396 21.5397H1.85806L2.03611 21.5389C2.43097 21.5368 2.74946 21.221 2.7476 20.8335C2.74536 20.4472 2.42575 20.1354 2.03239 20.1354C2.03127 20.1354 2.02978 20.1354 2.02866 20.1354L1.85061 20.1362C1.45538 20.1384 1.13689 20.4542 1.13913 20.8416C1.14099 21.2279 1.46097 21.5397 1.85396 21.5397Z" fill="black"/>
<path fill-rule="evenodd" clip-rule="evenodd" d="M34.0833 14.8847L34.0841 15.0594C34.0863 15.4458 34.4059 15.7575 34.7993 15.7575H34.803C35.1978 15.7557 35.5167 15.4399 35.5148 15.0525L35.5137 14.8778C35.5119 14.4915 35.1919 14.1793 34.7985 14.1793C34.7974 14.1793 34.7963 14.1793 34.7952 14.1793C34.3999 14.1815 34.0814 14.4973 34.0833 14.8847Z" fill="black"/>
<path fill-rule="evenodd" clip-rule="evenodd" d="M34.8056 18.3339H34.8093C35.2042 18.3317 35.5227 18.0159 35.5208 17.6285L35.5197 17.4538C35.5178 17.0671 35.1978 16.7553 34.8049 16.7553C34.8034 16.7553 34.8022 16.7553 34.8008 16.7553C34.4059 16.7575 34.0874 17.0733 34.0893 17.4611L34.0904 17.6354C34.0923 18.0221 34.4122 18.3339 34.8056 18.3339Z" fill="black"/>
<path fill-rule="evenodd" clip-rule="evenodd" d="M36.204 15.5514C36.2029 15.5514 36.2017 15.5514 36.2002 15.5514L36.0222 15.5521C35.6273 15.5543 35.3088 15.8697 35.3103 16.2572C35.3126 16.6439 35.6322 16.956 36.0255 16.956H36.0289L36.207 16.9549C36.6022 16.9531 36.9207 16.6373 36.9188 16.2499C36.9173 15.8635 36.5973 15.5514 36.204 15.5514Z" fill="black"/>
<path fill-rule="evenodd" clip-rule="evenodd" d="M33.4001 16.9615H33.4039L33.5815 16.9608C33.9768 16.9589 34.2953 16.6431 34.2938 16.2557C34.2915 15.8694 33.9719 15.5573 33.5786 15.5573C33.5774 15.5573 33.5763 15.5573 33.5752 15.5573L33.3972 15.558C33.0019 15.5598 32.6834 15.8756 32.6849 16.263C32.6868 16.6497 33.0068 16.9615 33.4001 16.9615Z" fill="black"/>
<path fill-rule="evenodd" clip-rule="evenodd" d="M4.47712 3.64676H4.48084C4.8757 3.64457 5.19419 3.32878 5.19233 2.94135L5.19121 2.76664C5.18935 2.38031 4.86937 2.06854 4.47637 2.06854C4.47488 2.06854 4.47377 2.06854 4.47228 2.06854C4.07742 2.07037 3.75893 2.38616 3.7608 2.77395L3.76191 2.94866C3.76378 3.33499 4.08376 3.64676 4.47712 3.64676Z" fill="black"/>
<path fill-rule="evenodd" clip-rule="evenodd" d="M5.19717 5.34269C5.19531 4.95636 4.87533 4.64459 4.48234 4.64459C4.48085 4.64459 4.47973 4.64459 4.47824 4.64459C4.08339 4.64642 3.7649 4.96221 3.76676 5.35L3.76788 5.52471C3.76974 5.91104 4.08972 6.22281 4.48309 6.22281H4.48681C4.88166 6.22062 5.20015 5.90483 5.19829 5.5174L5.19717 5.34269Z" fill="black"/>
<path fill-rule="evenodd" clip-rule="evenodd" d="M5.70304 4.84485H5.70713L5.88519 4.84376C6.28004 4.84193 6.59853 4.52614 6.59667 4.13835C6.59444 3.75202 6.27483 3.44025 5.88146 3.44025C5.88035 3.44025 5.87886 3.44025 5.87774 3.44025L5.69968 3.44134C5.30446 3.44317 4.98597 3.75896 4.9882 4.14675C4.99006 4.53308 5.31004 4.84485 5.70304 4.84485Z" fill="black"/>
<path fill-rule="evenodd" clip-rule="evenodd" d="M3.07763 4.85071H3.08135L3.25941 4.84998C3.65463 4.84779 3.97312 4.532 3.97089 4.14421C3.96903 3.75787 3.64905 3.44611 3.25605 3.44611C3.25456 3.44611 3.25345 3.44611 3.25196 3.44611L3.0739 3.4472C2.67905 3.44903 2.36056 3.76518 2.36242 4.15261C2.36465 4.53894 2.68426 4.85071 3.07763 4.85071Z" fill="black"/>
<path fill-rule="evenodd" clip-rule="evenodd" d="M32.0852 18.915C31.6904 18.9169 31.3719 19.2327 31.3737 19.6204L31.3748 19.7952C31.3767 20.1815 31.6967 20.4933 32.0901 20.4933H32.0938C32.4886 20.4911 32.8071 20.1753 32.8053 19.7878L32.8045 19.6131C32.8023 19.2253 32.4775 18.9154 32.0852 18.915Z" fill="black"/>
<path fill-rule="evenodd" clip-rule="evenodd" d="M32.096 23.0693H32.0997C32.4949 23.0671 32.8134 22.7513 32.8112 22.3639L32.8105 22.1892C32.8082 21.8029 32.4886 21.4911 32.0953 21.4911C32.0938 21.4911 32.0926 21.4911 32.0915 21.4911C31.6963 21.4929 31.3778 21.8087 31.38 22.1965L31.3808 22.3712C31.3827 22.7575 31.7026 23.0693 32.096 23.0693Z" fill="black"/>
<path fill-rule="evenodd" clip-rule="evenodd" d="M33.316 21.6913H33.32L33.4981 21.6903C33.893 21.6884 34.2114 21.3726 34.2096 20.9848C34.2074 20.5985 33.8877 20.2867 33.4944 20.2867C33.4933 20.2867 33.4918 20.2867 33.4907 20.2867L33.3126 20.2878C32.9174 20.2897 32.5989 20.6055 32.6011 20.9932C32.603 21.3796 32.923 21.6913 33.316 21.6913Z" fill="black"/>
<path fill-rule="evenodd" clip-rule="evenodd" d="M30.8653 20.2926L30.6872 20.2937C30.292 20.2955 29.9735 20.6117 29.9757 20.9991C29.9776 21.3854 30.2976 21.6972 30.6909 21.6972H30.6947L30.8727 21.6961C31.2676 21.6943 31.5861 21.3785 31.5842 20.9907C31.5823 20.6033 31.2646 20.2919 30.8653 20.2926Z" fill="black"/>
<path fill-rule="evenodd" clip-rule="evenodd" d="M32.1143 8.06712C32.2048 8.3745 32.4905 8.57407 32.8011 8.57407C32.8667 8.57407 32.9334 8.56529 32.9997 8.54629L33.7302 8.33942C34.1098 8.23196 34.3284 7.84271 34.2189 7.47063C34.1094 7.09819 33.7127 6.88328 33.3335 6.9911L32.603 7.19797C32.2234 7.30542 32.0044 7.69468 32.1143 8.06712Z" fill="black"/>
<path fill-rule="evenodd" clip-rule="evenodd" d="M31.9802 6.94903C32.1679 6.94903 32.3553 6.87702 32.4957 6.73375L33.0228 6.1961C33.2966 5.91686 33.288 5.47278 33.0034 5.20378C32.7185 4.93514 32.2659 4.94391 31.9921 5.22315L31.465 5.7608C31.1908 6.04004 31.1998 6.48411 31.4844 6.75312C31.6229 6.88397 31.8017 6.94903 31.9802 6.94903Z" fill="black"/>
<path fill-rule="evenodd" clip-rule="evenodd" d="M33.8997 9.17419L33.1614 8.99509C32.7784 8.90189 32.3903 9.13179 32.2953 9.50789C32.2007 9.88435 32.4346 10.2645 32.8179 10.3577L33.5562 10.5368C33.6136 10.5506 33.6717 10.5576 33.7283 10.5576C34.0494 10.5576 34.3415 10.3438 34.4223 10.024C34.5169 9.64787 34.283 9.26739 33.8997 9.17419Z" fill="black"/>
<path fill-rule="evenodd" clip-rule="evenodd" d="M2.07224 14.6734C2.08454 14.6734 2.0972 14.6734 2.10987 14.6723L2.8694 14.6336C3.26388 14.6131 3.5671 14.2831 3.54624 13.896C3.52575 13.509 3.18938 13.2081 2.79453 13.2319L2.03537 13.271C1.64089 13.2911 1.33767 13.6212 1.35853 14.0086C1.37827 14.3832 1.69415 14.6734 2.07224 14.6734Z" fill="black"/>
<path fill-rule="evenodd" clip-rule="evenodd" d="M2.06367 12.4202L2.74088 12.759C2.84518 12.8109 2.95582 12.8357 3.06496 12.8357C3.32534 12.8357 3.57641 12.6954 3.70306 12.4523C3.88223 12.1069 3.74217 11.6844 3.39053 11.5082L2.71295 11.1694C2.36093 10.9936 1.93032 11.1307 1.75077 11.4761C1.5716 11.8215 1.71166 12.2444 2.06367 12.4202Z" fill="black"/>
<path fill-rule="evenodd" clip-rule="evenodd" d="M3.64532 16.2868C3.97685 16.0759 4.07109 15.6413 3.85578 15.316C3.64085 14.9911 3.19757 14.8986 2.86641 15.1099L2.22869 15.5159C1.89753 15.7268 1.80329 16.1618 2.01822 16.4867C2.1553 16.6936 2.38477 16.8065 2.6187 16.8065C2.75205 16.8065 2.88727 16.7696 3.00759 16.6932L3.64532 16.2868Z" fill="black"/>
</svg>
