<svg width="48" height="48" viewBox="0 0 48 48" fill="none" xmlns="http://www.w3.org/2000/svg">
<path fill-rule="evenodd" clip-rule="evenodd" d="M25.1871 22.7697C24.8205 22.4038 24.2271 22.4038 23.8605 22.7697C23.4949 23.1346 23.4949 23.7269 23.8605 24.0927C24.2271 24.4576 24.8205 24.4576 25.1871 24.0927C25.5527 23.7269 25.5527 23.1346 25.1871 22.7697Z" fill="black"/>
<path fill-rule="evenodd" clip-rule="evenodd" d="M30.4893 10.8604C32.3213 9.03209 35.2868 9.03218 37.1187 10.8604C38.9507 12.6888 38.9504 15.6486 37.1187 17.4767C35.2911 19.3007 32.3174 19.3 30.4896 17.4769C28.6622 15.6519 28.6622 12.6839 30.4893 10.8604ZM31.8154 16.1536C32.9122 17.2476 34.6967 17.2476 35.7929 16.1534C36.8921 15.0564 36.8919 13.2804 35.7929 12.1836C34.6937 11.0865 32.9143 11.0867 31.8152 12.1836C30.7189 13.2777 30.719 15.0587 31.8154 16.1536Z" fill="black"/>
<path fill-rule="evenodd" clip-rule="evenodd" d="M47.7253 0.274068C47.5412 0.0903951 47.29 -0.00916042 47.0288 0.000664141C46.8168 0.00824309 41.7698 0.210723 35.7702 2.32712C30.9627 4.02125 26.9556 6.44679 23.8601 9.53638C23.1664 10.2287 22.4914 10.9628 21.8456 11.7255C18.7848 9.92731 16.3321 10.4911 14.7816 11.3193C11.2115 13.2262 9.00171 18.4038 9.00171 22.1072C9.00199 22.4856 9.23046 22.8269 9.58071 22.9716C9.69668 23.0196 9.81855 23.0429 9.9393 23.0429C10.1833 23.0429 10.4231 22.9478 10.6024 22.7689C12.4852 20.8897 14.8075 21.0073 15.5661 21.1068L15.8944 21.4345C15.2483 22.969 14.7278 24.4949 14.346 25.979C14.2082 26.516 14.2547 27.0844 14.4596 27.6042C13.5569 28.0194 12.6861 28.629 11.9278 29.3857C9.51462 31.7943 9.02458 37.6642 9.0049 37.9129C8.98333 38.1858 9.08252 38.4546 9.27649 38.6482C9.45302 38.8242 9.6918 38.9222 9.9393 38.9222C9.96387 38.9222 9.98852 38.9213 10.0132 38.9193C10.2624 38.8998 16.1439 38.4107 18.5571 36.0022C19.3151 35.2457 19.9257 34.3766 20.3417 33.4759C20.8931 33.6924 21.4607 33.719 21.9711 33.5885C23.4574 33.2076 24.9861 32.6883 26.5238 32.0433L26.8521 32.371C26.9517 33.1282 27.0695 35.446 25.1868 37.3249C24.9188 37.5925 24.8385 37.995 24.9836 38.3445C25.1287 38.6942 25.4705 38.9221 25.8497 38.9221C29.5603 38.9221 34.748 36.7166 36.6586 33.1535C37.4884 31.6062 38.0533 29.1583 36.2516 26.1034C37.0154 25.4591 37.7511 24.7854 38.445 24.0928C41.5406 21.0032 43.9708 17.0039 45.6683 12.2061C47.7889 6.21802 47.9917 1.18073 47.9993 0.969272C48.0086 0.709623 47.9094 0.457834 47.7253 0.274068ZM11.0978 20.0947C11.6801 17.2818 13.3717 14.1951 15.6667 12.9692C17.2003 12.1501 18.8767 12.2304 20.6591 13.2041C19.1406 15.1973 17.8205 17.3447 16.7201 19.6123C16.7183 19.6111 16.7138 19.6065 16.7066 19.5991C16.6593 19.5505 16.4962 19.3826 16.2239 19.3214C16.095 19.2923 13.6145 18.7598 11.0978 20.0947ZM11.007 36.921C12.9183 36.6439 15.9422 35.9654 17.2313 34.6788C17.9532 33.9584 18.5005 33.123 18.8087 32.2833L15.6538 29.1346C14.8125 29.4423 13.9755 29.9885 13.2536 30.709C11.9647 31.9954 11.2847 35.0133 11.007 36.921ZM21.5053 31.7757C21.234 31.8451 20.9198 31.7433 20.6861 31.5105L18.85 29.6779L16.4288 27.2614C16.195 27.0276 16.093 26.714 16.1622 26.4437C16.4625 25.2765 16.8552 24.0791 17.3328 22.8701L25.0855 30.6076C23.8739 31.0844 22.6743 31.4762 21.5053 31.7757ZM27.8665 36.8304C30.6848 36.2493 33.7774 34.5609 35.0057 32.2705C35.8263 30.7401 35.746 29.0669 34.7703 27.2878C32.7731 28.8033 30.6216 30.1208 28.3497 31.219C28.3507 31.2205 28.3528 31.2229 28.3561 31.2262C28.3588 31.2289 28.3622 31.2322 28.3663 31.2362C28.4174 31.2859 28.57 31.4344 28.6348 31.6916C28.9631 32.9943 28.7651 35.1427 27.8665 36.8304ZM37.1194 22.7696C36.2746 23.6126 35.365 24.4271 34.4156 25.1904C32.1336 27.0243 29.6218 28.5777 26.9421 29.8143L18.1277 21.0173C19.3667 18.3426 20.9231 15.8357 22.7605 13.5584C23.5258 12.6103 24.3418 11.7023 25.1862 10.8596C27.9636 8.08759 31.548 5.88146 35.8429 4.29344L43.6984 12.1336C42.1075 16.42 39.897 19.9975 37.1194 22.7696ZM37.8202 3.62022L44.3729 10.1602C45.4817 6.59744 45.897 3.49765 46.0464 1.95014C44.4961 2.0991 41.3903 2.51351 37.8202 3.62022Z" fill="black"/>
<path fill-rule="evenodd" clip-rule="evenodd" d="M22.5348 38.6478C22.1685 38.2825 21.5749 38.2826 21.2089 38.648L18.5576 41.295C18.1916 41.6605 18.1917 42.253 18.5578 42.6183C18.9241 42.9836 19.5177 42.9836 19.8837 42.6181L22.535 39.9711C22.901 39.6056 22.9009 39.0131 22.5348 38.6478Z" fill="black"/>
<path fill-rule="evenodd" clip-rule="evenodd" d="M9.27694 25.4158C8.91094 25.0503 8.31741 25.0503 7.95113 25.4156L5.29894 28.0617C4.93275 28.427 4.93266 29.0194 5.29866 29.3849C5.66457 29.7502 6.2581 29.7506 6.62447 29.3851L9.27666 26.739C9.64285 26.3737 9.64294 25.7813 9.27694 25.4158Z" fill="black"/>
<path fill-rule="evenodd" clip-rule="evenodd" d="M15.9059 39.9719C15.54 39.6065 14.9463 39.6065 14.5801 39.9718L8.22949 46.3091C7.8633 46.6745 7.8633 47.267 8.22939 47.6324C8.5953 47.9977 9.18902 47.9979 9.55521 47.6325L15.9058 41.2952C16.272 40.9298 16.272 40.3373 15.9059 39.9719Z" fill="black"/>
<path fill-rule="evenodd" clip-rule="evenodd" d="M8.40592 39.9719C8.03992 39.6065 7.44621 39.6065 7.08011 39.9718L0.729486 46.3091C0.363299 46.6745 0.363299 47.267 0.729393 47.6324C1.0953 47.9977 1.68902 47.9979 2.05521 47.6325L8.40583 41.2952C8.77202 40.9298 8.77202 40.3373 8.40592 39.9719Z" fill="black"/>
<path fill-rule="evenodd" clip-rule="evenodd" d="M7.95018 32.0316C7.58418 31.6664 6.99046 31.6664 6.62437 32.0317L0.274681 38.37C-0.0914131 38.7355 -0.0914131 39.3278 0.274774 39.6933C0.640868 40.0587 1.23449 40.0587 1.60059 39.6932L7.95027 33.355C8.31637 32.9895 8.31637 32.3971 7.95018 32.0316Z" fill="black"/>
<path fill-rule="evenodd" clip-rule="evenodd" d="M29.164 18.7994C28.7978 18.434 28.2044 18.434 27.8381 18.7994L26.5125 20.1225C26.1464 20.4878 26.1464 21.0803 26.5125 21.4458C26.8787 21.8112 27.4722 21.8112 27.8384 21.4458L29.164 20.1227C29.5301 19.7574 29.5301 19.1649 29.164 18.7994Z" fill="black"/>
</svg>
