<svg width="123" height="44" viewBox="0 0 123 44" fill="none" xmlns="http://www.w3.org/2000/svg">
<path d="M1.39762 22.6454C3.13687 22.6454 4.3792 23.4218 4.3792 25.4095V29.944C4.3792 34.1058 6.8328 36.0314 10.5598 36.0314H11.8021V32.5219H10.653C9.5038 32.5219 8.29253 31.9007 8.29253 29.9751V24.6952C8.29253 22.7696 7.17444 21.3099 5.21777 20.7197C7.20549 20.1296 8.29253 18.6699 8.29253 16.7754V11.4955C8.29253 9.56986 9.5038 8.97976 10.653 8.97976H11.8021V5.43913H10.5598C6.8328 5.43913 4.3792 7.39579 4.3792 11.5576V16.061C4.3792 18.0487 3.13687 18.7941 1.39762 18.7941V22.6454ZM25.8539 20.9372C25.8539 13.6695 22.8413 8.82447 19.0522 5.19066L16.3501 7.70637C19.7355 11.247 21.9406 15.2535 21.9406 20.9372C21.9406 26.5897 19.7355 30.6273 16.3501 34.1679L19.0522 36.6836C22.8413 33.0188 25.8539 28.2048 25.8539 20.9372Z" fill="#12AD82"/>
<path d="M1.39762 22.6454H1.29762V22.7454H1.39762V22.6454ZM11.8021 36.0314V36.1314H11.9021V36.0314H11.8021ZM11.8021 32.5219H11.9021V32.4218H11.8021V32.5219ZM5.21777 20.7197L5.18931 20.6239L4.86894 20.719L5.1889 20.8155L5.21777 20.7197ZM11.8021 8.97976V9.07976H11.9021V8.97976H11.8021ZM11.8021 5.43913H11.9021V5.33913H11.8021V5.43913ZM1.39762 18.7941V18.6941H1.29762V18.7941H1.39762ZM1.39762 22.7454C2.25442 22.7454 2.97317 22.9369 3.47639 23.3587C3.97643 23.7778 4.2792 24.4376 4.2792 25.4095H4.4792C4.4792 24.3937 4.1608 23.6714 3.60487 23.2054C3.05212 22.7421 2.28007 22.5454 1.39762 22.5454V22.7454ZM4.2792 25.4095V29.944H4.4792V25.4095H4.2792ZM4.2792 29.944C4.2792 32.0448 4.89904 33.5964 6.00385 34.6217C7.10736 35.6458 8.68018 36.1314 10.5598 36.1314V35.9314C8.71239 35.9314 7.19492 35.4542 6.1399 34.4751C5.08616 33.4972 4.4792 32.005 4.4792 29.944H4.2792ZM10.5598 36.1314H11.8021V35.9314H10.5598V36.1314ZM11.9021 36.0314V32.5219H11.7021V36.0314H11.9021ZM11.8021 32.4218H10.653V32.6218H11.8021V32.4218ZM10.653 32.4218C10.0949 32.4218 9.53115 32.2709 9.10816 31.8958C8.68752 31.5227 8.39253 30.9158 8.39253 29.9751H8.19253C8.19253 30.96 8.50318 31.6265 8.97545 32.0454C9.44539 32.4622 10.0619 32.6218 10.653 32.6218V32.4218ZM8.39253 29.9751V24.6952H8.19253V29.9751H8.39253ZM8.39253 24.6952C8.39253 22.7225 7.24262 21.226 5.24665 20.624L5.1889 20.8155C7.10625 21.3937 8.19253 22.8167 8.19253 24.6952H8.39253ZM5.24623 20.8156C6.25714 20.5155 7.04486 19.9923 7.57978 19.2977C8.11483 18.603 8.39253 17.7424 8.39253 16.7754H8.19253C8.19253 17.7029 7.92671 18.5195 7.42132 19.1757C6.91578 19.8321 6.16612 20.3339 5.18931 20.6239L5.24623 20.8156ZM8.39253 16.7754V11.4955H8.19253V16.7754H8.39253ZM8.39253 11.4955C8.39253 10.5548 8.68746 9.95617 9.10743 9.59097C9.53005 9.22348 10.0938 9.07976 10.653 9.07976V8.87976C10.063 8.87976 9.44649 9.03109 8.97619 9.44005C8.50324 9.85131 8.19253 10.5105 8.19253 11.4955H8.39253ZM10.653 9.07976H11.8021V8.87976H10.653V9.07976ZM11.9021 8.97976V5.43913H11.7021V8.97976H11.9021ZM11.8021 5.33913H10.5598V5.53913H11.8021V5.33913ZM10.5598 5.33913C8.67979 5.33913 7.10696 5.8327 6.00356 6.86465C4.89901 7.89768 4.2792 9.4568 4.2792 11.5576H4.4792C4.4792 9.49658 5.08619 7.99647 6.14018 7.01072C7.19533 6.02389 8.71278 5.53913 10.5598 5.53913V5.33913ZM4.2792 11.5576V16.061H4.4792V11.5576H4.2792ZM4.2792 16.061C4.2792 17.0329 3.97651 17.6845 3.47706 18.0958C2.97404 18.51 2.25524 18.6941 1.39762 18.6941V18.8941C2.27925 18.8941 3.05124 18.7055 3.6042 18.2502C4.16073 17.7918 4.4792 17.0769 4.4792 16.061H4.2792ZM1.29762 18.7941V22.6454H1.49762V18.7941H1.29762ZM19.0522 5.19066L19.1214 5.11849L19.0532 5.05309L18.984 5.11748L19.0522 5.19066ZM16.3501 7.70637L16.282 7.63319L16.2078 7.70224L16.2778 7.77548L16.3501 7.70637ZM16.3501 34.1679L16.2778 34.0988L16.2078 34.1721L16.282 34.2411L16.3501 34.1679ZM19.0522 36.6836L18.984 36.7568L19.0535 36.8215L19.1217 36.7555L19.0522 36.6836ZM25.9539 20.9372C25.9539 13.6366 22.9256 8.76678 19.1214 5.11849L18.983 5.26284C22.757 8.88216 25.7539 13.7025 25.7539 20.9372H25.9539ZM18.984 5.11748L16.282 7.63319L16.4183 7.77956L19.1203 5.26385L18.984 5.11748ZM16.2778 7.77548C19.6499 11.3022 21.8406 15.2851 21.8406 20.9372H22.0406C22.0406 15.2219 19.821 11.1918 16.4224 7.63727L16.2778 7.77548ZM21.8406 20.9372C21.8406 26.5582 19.6498 30.5722 16.2778 34.0988L16.4224 34.237C19.8211 30.6825 22.0406 26.6213 22.0406 20.9372H21.8406ZM16.282 34.2411L18.984 36.7568L19.1203 36.6105L16.4183 34.0947L16.282 34.2411ZM19.1217 36.7555C22.9254 33.0765 25.9539 28.2379 25.9539 20.9372H25.7539C25.7539 28.1716 22.7571 32.961 18.9827 36.6118L19.1217 36.7555Z" fill="#006045"/>
<path d="M34.6926 25.8341C34.7858 24.6849 35.7796 23.2252 37.7674 23.2252C40.0035 23.2252 40.8111 24.6539 40.8732 25.8341H34.6926ZM41.2148 29.8406C40.78 31.0519 39.8172 31.8594 38.109 31.8594C36.2766 31.8594 34.6926 30.617 34.5994 28.8778H45.3455C45.3766 28.7846 45.4387 28.0703 45.4387 27.4181C45.4387 22.4487 42.4882 19.4982 37.7052 19.4982C33.6987 19.4982 30.0028 22.6662 30.0028 27.6355C30.0028 32.8222 33.7919 35.8659 38.0469 35.8659C41.9602 35.8659 44.4138 33.6297 45.1592 30.9587L41.2148 29.8406ZM62.4739 19.9641H57.5046L54.2125 29.5611L50.6408 19.9641H45.5162L51.8521 35.4H56.604L62.4739 19.9641ZM62.7247 31.0208C62.8489 32.729 64.4018 35.8659 69.2469 35.8659C73.3776 35.8659 75.3964 33.288 75.3964 30.6481C75.3964 28.3809 73.8435 26.4552 70.6445 25.803L68.5947 25.3993C67.9114 25.275 67.3834 24.9023 67.3834 24.2501C67.3834 23.4426 68.1598 22.9146 69.0605 22.9146C70.4892 22.9146 71.1414 23.7842 71.2657 24.8092L75.179 24.0948C75.0237 22.2935 73.4708 19.4982 68.9984 19.4982C65.551 19.4982 63.0663 21.7965 63.0663 24.6228C63.0663 26.7969 64.3707 28.6604 67.6629 29.3747L69.4332 29.7785C70.5824 30.0269 70.9551 30.4928 70.9551 31.0519C70.9551 31.7351 70.365 32.3874 69.1537 32.3874C67.5387 32.3874 66.7933 31.3624 66.7312 30.3065L62.7247 31.0208ZM77.3992 32.4805C77.3992 34.1887 78.8279 35.6795 80.5672 35.6795C82.3064 35.6795 83.7661 34.1887 83.7661 32.4805C83.7661 30.7413 82.3064 29.3126 80.5672 29.3126C78.8279 29.3126 77.3992 30.7413 77.3992 32.4805ZM91.587 26.5484C91.587 24.9955 92.5809 23.8464 94.1338 23.8464C95.842 23.8464 96.6495 24.9955 96.6495 26.5174V35.4H101.37V25.7099C101.37 22.3245 99.6311 19.5603 95.7488 19.5603C94.1649 19.5603 92.2703 20.2747 91.4317 21.7344V19.9641H86.8662V35.4H91.587V26.5484ZM103.37 36.2696C103.805 39.0338 106.631 41.7669 111.073 41.7669C116.85 41.7669 119.334 37.9157 119.334 33.4744V19.9641H114.831V21.6102C114.396 20.8027 113.06 19.6846 110.545 19.6846C106.321 19.6846 103.37 23.1631 103.37 27.2317C103.37 31.5177 106.445 34.7478 110.545 34.7478C112.781 34.7478 114.116 33.8471 114.675 33.0085V33.7229C114.675 36.5181 113.216 37.6672 110.855 37.6672C109.085 37.6672 107.843 36.5802 107.532 35.0894L103.37 36.2696ZM111.414 30.6481C109.52 30.6481 108.091 29.3437 108.091 27.2317C108.091 25.1197 109.644 23.8153 111.414 23.8153C113.185 23.8153 114.707 25.1197 114.707 27.2317C114.707 29.3437 113.34 30.6481 111.414 30.6481Z" fill="#4A5158"/>
</svg>
